# Blender v2.93.7 OBJ File: ''
# www.blender.org
mtllib finger1_segment0_collision.mtl
o finger1_segment0
v 0.050000 0.050000 0.100000
v 0.049970 0.050000 0.100000
v 0.049882 0.050000 0.100000
v 0.049735 0.050000 0.100000
v 0.049533 0.050000 0.100000
v 0.049275 0.050000 0.100000
v 0.048963 0.050000 0.100000
v 0.048599 0.050000 0.100000
v 0.048182 0.050000 0.100000
v 0.047716 0.050000 0.100000
v 0.047200 0.050000 0.100000
v 0.046636 0.050000 0.100000
v 0.046026 0.050000 0.100000
v 0.045369 0.050000 0.100000
v 0.044669 0.050000 0.100000
v 0.043925 0.050000 0.100000
v 0.043139 0.050000 0.100000
v 0.042313 0.050000 0.100000
v 0.041446 0.050000 0.100000
v 0.040542 0.050000 0.100000
v 0.039600 0.050000 0.100000
v 0.038622 0.050000 0.100000
v 0.037610 0.050000 0.100000
v 0.036563 0.050000 0.100000
v 0.035485 0.050000 0.100000
v 0.034375 0.050000 0.100000
v 0.033235 0.050000 0.100000
v 0.032067 0.050000 0.100000
v 0.030870 0.050000 0.100000
v 0.029648 0.050000 0.100000
v 0.028400 0.050000 0.100000
v 0.027128 0.050000 0.100000
v 0.025834 0.050000 0.100000
v 0.024517 0.050000 0.100000
v 0.023181 0.050000 0.100000
v 0.021825 0.050000 0.100000
v 0.020451 0.050000 0.100000
v 0.019061 0.050000 0.100000
v 0.017654 0.050000 0.100000
v 0.016234 0.050000 0.100000
v 0.014800 0.050000 0.100000
v 0.013354 0.050000 0.100000
v 0.011898 0.050000 0.100000
v 0.010431 0.050000 0.100000
v 0.008957 0.050000 0.100000
v 0.007475 0.050000 0.100000
v 0.005987 0.050000 0.100000
v 0.004495 0.050000 0.100000
v 0.002998 0.050000 0.100000
v 0.001500 0.050000 0.100000
v -0.000000 0.050000 0.100000
v -0.001500 0.050000 0.100000
v -0.002998 0.050000 0.100000
v -0.004495 0.050000 0.100000
v -0.005987 0.050000 0.100000
v -0.007475 0.050000 0.100000
v -0.008957 0.050000 0.100000
v -0.010431 0.050000 0.100000
v -0.011898 0.050000 0.100000
v -0.013354 0.050000 0.100000
v -0.014800 0.050000 0.100000
v -0.016234 0.050000 0.100000
v -0.017654 0.050000 0.100000
v -0.019061 0.050000 0.100000
v -0.020451 0.050000 0.100000
v -0.021825 0.050000 0.100000
v -0.023181 0.050000 0.100000
v -0.024517 0.050000 0.100000
v -0.025834 0.050000 0.100000
v -0.027128 0.050000 0.100000
v -0.028400 0.050000 0.100000
v -0.029648 0.050000 0.100000
v -0.030870 0.050000 0.100000
v -0.032067 0.050000 0.100000
v -0.033235 0.050000 0.100000
v -0.034375 0.050000 0.100000
v -0.035485 0.050000 0.100000
v -0.036563 0.050000 0.100000
v -0.037610 0.050000 0.100000
v -0.038622 0.050000 0.100000
v -0.039600 0.050000 0.100000
v -0.040542 0.050000 0.100000
v -0.041446 0.050000 0.100000
v -0.042313 0.050000 0.100000
v -0.043139 0.050000 0.100000
v -0.043925 0.050000 0.100000
v -0.044669 0.050000 0.100000
v -0.045369 0.050000 0.100000
v -0.046026 0.050000 0.100000
v -0.046636 0.050000 0.100000
v -0.047200 0.050000 0.100000
v -0.047716 0.050000 0.100000
v -0.048182 0.050000 0.100000
v -0.048599 0.050000 0.100000
v -0.048963 0.050000 0.100000
v -0.049275 0.050000 0.100000
v -0.049533 0.050000 0.100000
v -0.049735 0.050000 0.100000
v -0.049882 0.050000 0.100000
v -0.049970 0.050000 0.100000
v -0.050000 0.050000 0.100000
v 0.050000 0.050000 0.500000
v 0.048515 0.050000 0.500000
v 0.047059 0.050000 0.500000
v 0.045632 0.050000 0.500000
v 0.044234 0.050000 0.500000
v 0.042863 0.050000 0.500000
v 0.041518 0.050000 0.500000
v 0.040201 0.050000 0.500000
v 0.038909 0.050000 0.500000
v 0.037642 0.050000 0.500000
v 0.036400 0.050000 0.500000
v 0.035182 0.050000 0.500000
v 0.033987 0.050000 0.500000
v 0.032815 0.050000 0.500000
v 0.031666 0.050000 0.500000
v 0.030537 0.050000 0.500000
v 0.029430 0.050000 0.500000
v 0.028344 0.050000 0.500000
v 0.027277 0.050000 0.500000
v 0.026229 0.050000 0.500000
v 0.025200 0.050000 0.500000
v 0.024189 0.050000 0.500000
v 0.023195 0.050000 0.500000
v 0.022218 0.050000 0.500000
v 0.021258 0.050000 0.500000
v 0.020312 0.050000 0.500000
v 0.019382 0.050000 0.500000
v 0.018467 0.050000 0.500000
v 0.017565 0.050000 0.500000
v 0.016676 0.050000 0.500000
v 0.015800 0.050000 0.500000
v 0.014936 0.050000 0.500000
v 0.014083 0.050000 0.500000
v 0.013241 0.050000 0.500000
v 0.012410 0.050000 0.500000
v 0.011587 0.050000 0.500000
v 0.010774 0.050000 0.500000
v 0.009970 0.050000 0.500000
v 0.009173 0.050000 0.500000
v 0.008383 0.050000 0.500000
v 0.007600 0.050000 0.500000
v 0.006823 0.050000 0.500000
v 0.006051 0.050000 0.500000
v 0.005284 0.050000 0.500000
v 0.004522 0.050000 0.500000
v 0.003762 0.050000 0.500000
v 0.003006 0.050000 0.500000
v 0.002253 0.050000 0.500000
v 0.001501 0.050000 0.500000
v 0.000750 0.050000 0.500000
v 0.000000 0.050000 0.500000
v -0.000750 0.050000 0.500000
v -0.001501 0.050000 0.500000
v -0.002253 0.050000 0.500000
v -0.003006 0.050000 0.500000
v -0.003762 0.050000 0.500000
v -0.004522 0.050000 0.500000
v -0.005284 0.050000 0.500000
v -0.006051 0.050000 0.500000
v -0.006823 0.050000 0.500000
v -0.007600 0.050000 0.500000
v -0.008383 0.050000 0.500000
v -0.009173 0.050000 0.500000
v -0.009970 0.050000 0.500000
v -0.010774 0.050000 0.500000
v -0.011587 0.050000 0.500000
v -0.012410 0.050000 0.500000
v -0.013241 0.050000 0.500000
v -0.014083 0.050000 0.500000
v -0.014936 0.050000 0.500000
v -0.015800 0.050000 0.500000
v -0.016676 0.050000 0.500000
v -0.017565 0.050000 0.500000
v -0.018467 0.050000 0.500000
v -0.019382 0.050000 0.500000
v -0.020312 0.050000 0.500000
v -0.021258 0.050000 0.500000
v -0.022218 0.050000 0.500000
v -0.023195 0.050000 0.500000
v -0.024189 0.050000 0.500000
v -0.025200 0.050000 0.500000
v -0.026229 0.050000 0.500000
v -0.027277 0.050000 0.500000
v -0.028344 0.050000 0.500000
v -0.029430 0.050000 0.500000
v -0.030537 0.050000 0.500000
v -0.031666 0.050000 0.500000
v -0.032815 0.050000 0.500000
v -0.033987 0.050000 0.500000
v -0.035182 0.050000 0.500000
v -0.036400 0.050000 0.500000
v -0.037642 0.050000 0.500000
v -0.038909 0.050000 0.500000
v -0.040201 0.050000 0.500000
v -0.041518 0.050000 0.500000
v -0.042863 0.050000 0.500000
v -0.044234 0.050000 0.500000
v -0.045632 0.050000 0.500000
v -0.047059 0.050000 0.500000
v -0.048515 0.050000 0.500000
v -0.050000 0.050000 0.500000
v 0.050000 -0.050000 0.500000
v -0.050000 -0.050000 0.500000
v -0.050000 -0.050000 0.100000
v 0.050000 -0.050000 0.100000
vn 0.0000 0.0000 -1.0000
vn 0.0000 0.0000 1.0000
vn 1.0000 0.0000 0.0000
vn -1.0000 0.0000 0.0000
vn 0.0000 -1.0000 0.0000
vn 0.0000 1.0000 0.0000
vn 0.0000 0.9701 0.2425
vn 1.0000 0.0000 -0.0003
usemtl None
s off
f 205//1 52//1 51//1
f 112//2 113//2 204//2
f 1//3 203//3 206//3
f 205//4 202//4 101//4
f 204//5 206//5 203//5
f 3//6 102//6 2//6
f 4//6 103//6 3//6
f 5//6 104//6 4//6
f 6//6 105//6 5//6
f 7//6 106//6 6//6
f 8//6 107//6 7//6
f 9//6 108//6 8//6
f 10//6 109//6 9//6
f 11//6 110//6 10//6
f 12//6 111//6 11//6
f 13//6 112//6 12//6
f 14//6 113//6 13//6
f 15//6 114//6 14//6
f 16//6 115//6 15//6
f 17//6 116//6 16//6
f 18//6 117//6 17//6
f 19//6 118//6 18//6
f 20//6 119//6 19//6
f 21//6 120//6 20//6
f 22//6 121//6 21//6
f 23//6 122//6 22//6
f 24//6 123//6 23//6
f 25//6 124//6 24//6
f 26//6 125//6 25//6
f 27//6 126//6 26//6
f 28//6 127//6 27//6
f 29//6 128//6 28//6
f 30//6 129//6 29//6
f 31//6 130//6 30//6
f 32//6 131//6 31//6
f 33//6 132//6 32//6
f 34//6 133//6 33//6
f 35//6 134//6 34//6
f 36//6 135//6 35//6
f 37//6 136//6 36//6
f 38//6 137//6 37//6
f 39//6 138//6 38//6
f 40//6 139//6 39//6
f 41//6 140//6 40//6
f 42//6 141//6 41//6
f 43//6 142//6 42//6
f 44//6 143//6 43//6
f 45//6 144//6 44//6
f 46//6 145//6 45//6
f 47//6 146//6 46//6
f 48//6 147//6 47//6
f 49//6 148//6 48//6
f 50//6 149//6 49//6
f 50//6 151//6 150//6
f 51//6 152//6 151//6
f 52//6 153//6 152//6
f 53//6 154//6 153//6
f 54//6 155//6 154//6
f 55//6 156//6 155//6
f 56//6 157//6 156//6
f 57//6 158//6 157//6
f 58//6 159//6 158//6
f 59//6 160//6 159//6
f 60//6 161//6 160//6
f 61//6 162//6 161//6
f 62//6 163//6 162//6
f 63//6 164//6 163//6
f 64//6 165//6 164//6
f 65//6 166//6 165//6
f 66//6 167//6 166//6
f 67//6 168//6 167//6
f 68//6 169//6 168//6
f 69//6 170//6 169//6
f 70//6 171//6 170//6
f 71//6 172//6 171//6
f 72//6 173//6 172//6
f 73//6 174//6 173//6
f 74//6 175//6 174//6
f 75//6 176//6 175//6
f 76//6 177//6 176//6
f 77//6 178//6 177//6
f 78//6 179//6 178//6
f 79//6 180//6 179//6
f 80//6 181//6 180//6
f 81//6 182//6 181//6
f 82//6 183//6 182//6
f 83//6 184//6 183//6
f 84//6 185//6 184//6
f 85//6 186//6 185//6
f 86//6 187//6 186//6
f 87//6 188//6 187//6
f 88//6 189//6 188//6
f 89//6 190//6 189//6
f 90//6 191//6 190//6
f 91//6 192//6 191//6
f 92//6 193//6 192//6
f 93//6 194//6 193//6
f 94//6 195//6 194//6
f 95//6 196//6 195//6
f 96//6 197//6 196//6
f 97//6 198//6 197//6
f 98//6 199//6 198//6
f 99//6 200//6 199//6
f 100//6 201//6 200//6
f 102//5 201//5 101//5
f 205//1 101//1 100//1
f 99//1 98//1 205//1
f 98//1 97//1 205//1
f 205//1 100//1 99//1
f 1//1 206//1 2//1
f 206//1 205//1 51//1
f 2//1 206//1 3//1
f 4//1 3//1 206//1
f 4//1 206//1 5//1
f 96//1 95//1 205//1
f 95//1 94//1 205//1
f 205//1 97//1 96//1
f 5//1 206//1 6//1
f 7//1 6//1 206//1
f 7//1 206//1 8//1
f 93//1 92//1 205//1
f 92//1 91//1 205//1
f 205//1 94//1 93//1
f 8//1 206//1 9//1
f 10//1 9//1 206//1
f 10//1 206//1 11//1
f 90//1 89//1 205//1
f 89//1 88//1 205//1
f 205//1 91//1 90//1
f 11//1 206//1 12//1
f 13//1 12//1 206//1
f 13//1 206//1 14//1
f 87//1 86//1 205//1
f 86//1 85//1 205//1
f 205//1 88//1 87//1
f 14//1 206//1 15//1
f 16//1 15//1 206//1
f 16//1 206//1 17//1
f 84//1 83//1 205//1
f 83//1 82//1 205//1
f 205//1 85//1 84//1
f 17//1 206//1 18//1
f 19//1 18//1 206//1
f 19//1 206//1 20//1
f 81//1 80//1 205//1
f 80//1 79//1 205//1
f 205//1 82//1 81//1
f 20//1 206//1 21//1
f 22//1 21//1 206//1
f 22//1 206//1 23//1
f 78//1 77//1 205//1
f 77//1 76//1 205//1
f 205//1 79//1 78//1
f 23//1 206//1 24//1
f 25//1 24//1 206//1
f 25//1 206//1 26//1
f 75//1 74//1 205//1
f 74//1 73//1 205//1
f 205//1 76//1 75//1
f 26//1 206//1 27//1
f 28//1 27//1 206//1
f 28//1 206//1 29//1
f 72//1 71//1 205//1
f 71//1 70//1 205//1
f 205//1 73//1 72//1
f 29//1 206//1 30//1
f 31//1 30//1 206//1
f 31//1 206//1 32//1
f 69//1 68//1 205//1
f 68//1 67//1 205//1
f 205//1 70//1 69//1
f 32//1 206//1 33//1
f 34//1 33//1 206//1
f 34//1 206//1 35//1
f 66//1 65//1 205//1
f 65//1 64//1 205//1
f 205//1 67//1 66//1
f 35//1 206//1 36//1
f 37//1 36//1 206//1
f 37//1 206//1 38//1
f 63//1 62//1 205//1
f 62//1 61//1 205//1
f 205//1 64//1 63//1
f 38//1 206//1 39//1
f 40//1 39//1 206//1
f 40//1 206//1 41//1
f 60//1 59//1 205//1
f 59//1 58//1 205//1
f 205//1 61//1 60//1
f 41//1 206//1 42//1
f 43//1 42//1 206//1
f 43//1 206//1 44//1
f 57//1 56//1 205//1
f 56//1 55//1 205//1
f 205//1 58//1 57//1
f 44//1 206//1 45//1
f 46//1 45//1 206//1
f 46//1 206//1 47//1
f 54//1 53//1 205//1
f 53//1 52//1 205//1
f 205//1 55//1 54//1
f 47//1 206//1 48//1
f 49//1 48//1 206//1
f 49//1 206//1 50//1
f 51//1 50//1 206//1
f 203//7 2//7 3//7
f 4//6 5//6 102//6
f 5//6 6//6 102//6
f 4//6 102//6 3//6
f 203//8 3//8 102//8
f 202//2 204//2 201//2
f 204//2 203//2 102//2
f 201//2 204//2 200//2
f 199//2 200//2 204//2
f 199//2 204//2 198//2
f 6//2 7//2 8//2
f 8//2 9//2 10//2
f 11//2 12//2 13//2
f 6//1 8//1 10//1
f 10//6 11//6 102//6
f 11//6 13//6 102//6
f 10//6 102//6 6//6
f 197//2 204//2 196//2
f 197//2 198//2 204//2
f 195//2 196//2 204//2
f 192//2 193//2 204//2
f 193//2 194//2 204//2
f 194//2 195//2 204//2
f 13//2 14//2 15//2
f 16//2 17//2 18//2
f 13//6 15//6 102//6
f 16//2 18//2 19//2
f 15//6 16//6 102//6
f 190//2 204//2 189//2
f 191//2 192//2 204//2
f 188//2 189//2 204//2
f 190//2 191//2 204//2
f 16//6 19//6 102//6
f 19//1 20//1 21//1
f 19//6 21//6 102//6
f 21//6 22//6 102//6
f 186//2 204//2 185//2
f 187//2 188//2 204//2
f 184//2 185//2 204//2
f 186//2 187//2 204//2
f 22//6 23//6 102//6
f 184//2 204//2 183//2
f 182//2 183//2 204//2
f 182//2 204//2 181//2
f 23//6 24//6 102//6
f 24//1 25//1 26//1
f 26//2 27//2 28//2
f 26//6 28//6 102//6
f 28//6 29//6 102//6
f 24//6 26//6 102//6
f 179//2 204//2 178//2
f 180//2 181//2 204//2
f 177//2 178//2 204//2
f 179//2 180//2 204//2
f 30//6 31//6 102//6
f 31//6 32//6 102//6
f 29//6 30//6 102//6
f 176//2 204//2 175//2
f 176//2 177//2 204//2
f 174//2 175//2 204//2
f 171//2 172//2 204//2
f 172//2 173//2 204//2
f 173//2 174//2 204//2
f 33//6 34//6 102//6
f 34//6 35//6 102//6
f 32//6 33//6 102//6
f 171//2 204//2 170//2
f 170//2 204//2 169//2
f 35//6 36//6 102//6
f 36//6 37//6 102//6
f 37//6 38//6 102//6
f 38//6 39//6 102//6
f 40//6 41//6 102//6
f 41//6 42//6 102//6
f 39//6 40//6 102//6
f 167//2 204//2 166//2
f 168//2 169//2 204//2
f 165//2 166//2 204//2
f 167//2 168//2 204//2
f 42//6 43//6 102//6
f 43//6 44//6 102//6
f 165//2 204//2 164//2
f 163//2 164//2 204//2
f 163//2 204//2 162//2
f 44//6 45//6 102//6
f 45//6 46//6 102//6
f 102//6 46//6 47//6
f 47//6 48//6 102//6
f 48//6 49//6 102//6
f 161//2 204//2 160//2
f 161//2 162//2 204//2
f 159//2 160//2 204//2
f 157//2 158//2 204//2
f 158//2 159//2 204//2
f 154//2 155//2 204//2
f 155//2 156//2 204//2
f 156//2 157//2 204//2
f 152//2 153//2 204//2
f 153//2 154//2 204//2
f 151//2 152//2 204//2
f 49//6 50//6 102//6
f 50//6 51//6 102//6
f 51//6 52//6 102//6
f 52//6 53//6 102//6
f 53//6 54//6 102//6
f 55//6 56//6 102//6
f 56//6 57//6 102//6
f 54//6 55//6 102//6
f 58//6 59//6 102//6
f 59//6 60//6 102//6
f 57//6 58//6 102//6
f 60//6 61//6 102//6
f 62//6 63//6 102//6
f 63//6 64//6 102//6
f 61//6 62//6 102//6
f 150//2 204//2 149//2
f 150//2 151//2 204//2
f 148//2 149//2 204//2
f 145//2 146//2 204//2
f 146//2 147//2 204//2
f 147//2 148//2 204//2
f 64//6 65//6 102//6
f 65//6 66//6 102//6
f 143//2 204//2 142//2
f 144//2 145//2 204//2
f 141//2 142//2 204//2
f 143//2 144//2 204//2
f 66//6 67//6 102//6
f 67//6 68//6 102//6
f 69//6 70//6 102//6
f 70//6 71//6 102//6
f 68//6 69//6 102//6
f 141//2 204//2 140//2
f 140//2 204//2 139//2
f 71//6 72//6 102//6
f 72//6 73//6 102//6
f 73//6 74//6 102//6
f 75//2 76//2 77//2
f 74//6 75//6 102//6
f 137//2 204//2 136//2
f 138//2 139//2 204//2
f 137//2 138//2 204//2
f 75//6 77//6 102//6
f 77//6 78//6 102//6
f 78//2 79//2 80//2
f 80//6 81//6 102//6
f 81//6 82//6 102//6
f 80//6 102//6 78//6
f 82//2 83//2 84//2
f 84//6 85//6 102//6
f 85//6 86//6 102//6
f 84//6 102//6 82//6
f 86//6 87//6 102//6
f 87//6 88//6 102//6
f 88//2 89//2 91//2
f 89//2 90//2 91//2
f 91//2 92//2 94//2
f 92//2 93//2 94//2
f 88//6 91//6 102//6
f 91//6 94//6 102//6
f 136//2 204//2 135//2
f 134//2 135//2 204//2
f 134//2 204//2 133//2
f 132//2 204//2 131//2
f 132//2 133//2 204//2
f 129//2 130//2 204//2
f 130//2 131//2 204//2
f 94//6 95//6 102//6
f 95//1 96//1 97//1
f 98//6 99//6 102//6
f 99//6 100//6 102//6
f 95//2 97//2 98//2
f 127//2 204//2 126//2
f 128//2 129//2 204//2
f 125//2 126//2 204//2
f 127//2 128//2 204//2
f 95//6 98//6 102//6
f 100//6 101//6 102//6
f 125//2 204//2 124//2
f 123//2 124//2 204//2
f 123//2 204//2 122//2
f 103//2 104//2 204//2
f 104//2 105//2 204//2
f 102//2 103//2 204//2
f 120//2 204//2 119//2
f 121//2 122//2 204//2
f 118//2 119//2 204//2
f 120//2 121//2 204//2
f 106//2 107//2 204//2
f 107//2 108//2 204//2
f 105//2 106//2 204//2
f 118//2 204//2 117//2
f 116//2 117//2 204//2
f 116//2 204//2 115//2
f 108//2 109//2 204//2
f 109//2 110//2 204//2
f 110//2 111//2 204//2
f 115//2 204//2 114//2
f 113//2 114//2 204//2
f 112//2 204//2 111//2
f 1//7 2//7 203//7
f 205//4 204//4 202//4
f 204//5 205//5 206//5
f 3//6 103//6 102//6
f 4//6 104//6 103//6
f 5//6 105//6 104//6
f 6//6 106//6 105//6
f 7//6 107//6 106//6
f 8//6 108//6 107//6
f 9//6 109//6 108//6
f 10//6 110//6 109//6
f 11//6 111//6 110//6
f 12//6 112//6 111//6
f 13//6 113//6 112//6
f 14//6 114//6 113//6
f 15//6 115//6 114//6
f 16//6 116//6 115//6
f 17//6 117//6 116//6
f 18//6 118//6 117//6
f 19//6 119//6 118//6
f 20//6 120//6 119//6
f 21//6 121//6 120//6
f 22//6 122//6 121//6
f 23//6 123//6 122//6
f 24//6 124//6 123//6
f 25//6 125//6 124//6
f 26//6 126//6 125//6
f 27//6 127//6 126//6
f 28//6 128//6 127//6
f 29//6 129//6 128//6
f 30//6 130//6 129//6
f 31//6 131//6 130//6
f 32//6 132//6 131//6
f 33//6 133//6 132//6
f 34//6 134//6 133//6
f 35//6 135//6 134//6
f 36//6 136//6 135//6
f 37//6 137//6 136//6
f 38//6 138//6 137//6
f 39//6 139//6 138//6
f 40//6 140//6 139//6
f 41//6 141//6 140//6
f 42//6 142//6 141//6
f 43//6 143//6 142//6
f 44//6 144//6 143//6
f 45//6 145//6 144//6
f 46//6 146//6 145//6
f 47//6 147//6 146//6
f 48//6 148//6 147//6
f 49//6 149//6 148//6
f 50//6 150//6 149//6
f 50//6 51//6 151//6
f 51//6 52//6 152//6
f 52//6 53//6 153//6
f 53//6 54//6 154//6
f 54//6 55//6 155//6
f 55//6 56//6 156//6
f 56//6 57//6 157//6
f 57//6 58//6 158//6
f 58//6 59//6 159//6
f 59//6 60//6 160//6
f 60//6 61//6 161//6
f 61//6 62//6 162//6
f 62//6 63//6 163//6
f 63//6 64//6 164//6
f 64//6 65//6 165//6
f 65//6 66//6 166//6
f 66//6 67//6 167//6
f 67//6 68//6 168//6
f 68//6 69//6 169//6
f 69//6 70//6 170//6
f 70//6 71//6 171//6
f 71//6 72//6 172//6
f 72//6 73//6 173//6
f 73//6 74//6 174//6
f 74//6 75//6 175//6
f 75//6 76//6 176//6
f 76//6 77//6 177//6
f 77//6 78//6 178//6
f 78//6 79//6 179//6
f 79//6 80//6 180//6
f 80//6 81//6 181//6
f 81//6 82//6 182//6
f 82//6 83//6 183//6
f 83//6 84//6 184//6
f 84//6 85//6 185//6
f 85//6 86//6 186//6
f 86//6 87//6 187//6
f 87//6 88//6 188//6
f 88//6 89//6 189//6
f 89//6 90//6 190//6
f 90//6 91//6 191//6
f 91//6 92//6 192//6
f 92//6 93//6 193//6
f 93//6 94//6 194//6
f 94//6 95//6 195//6
f 95//6 96//6 196//6
f 96//6 97//6 197//6
f 97//6 98//6 198//6
f 98//6 99//6 199//6
f 99//6 100//6 200//6
f 100//6 101//6 201//6
f 102//2 202//2 201//2
