# Blender v2.93.7 OBJ File: ''
# www.blender.org
mtllib finger0_segment5_collision.mtl
o finger0_segment5
v 0.050000 0.012500 0.100000
v 0.049970 0.013985 0.100000
v 0.049882 0.015440 0.100000
v 0.049735 0.016865 0.100000
v 0.049533 0.018260 0.100000
v 0.049275 0.019625 0.100000
v 0.048963 0.020960 0.100000
v 0.048599 0.022265 0.100000
v 0.048182 0.023540 0.100000
v 0.047716 0.024785 0.100000
v 0.047200 0.026000 0.100000
v 0.046636 0.027185 0.100000
v 0.046026 0.028340 0.100000
v 0.045369 0.029465 0.100000
v 0.044669 0.030560 0.100000
v 0.043925 0.031625 0.100000
v 0.043139 0.032660 0.100000
v 0.042313 0.033665 0.100000
v 0.041446 0.034640 0.100000
v 0.040542 0.035585 0.100000
v 0.039600 0.036500 0.100000
v 0.038622 0.037385 0.100000
v 0.037610 0.038240 0.100000
v 0.036563 0.039065 0.100000
v 0.035485 0.039860 0.100000
v 0.034375 0.040625 0.100000
v 0.033235 0.041360 0.100000
v 0.032067 0.042065 0.100000
v 0.030870 0.042740 0.100000
v 0.029648 0.043385 0.100000
v 0.028400 0.044000 0.100000
v 0.027128 0.044585 0.100000
v 0.025834 0.045140 0.100000
v 0.024517 0.045665 0.100000
v 0.023181 0.046160 0.100000
v 0.021825 0.046625 0.100000
v 0.020451 0.047060 0.100000
v 0.019061 0.047465 0.100000
v 0.017654 0.047840 0.100000
v 0.016234 0.048185 0.100000
v 0.014800 0.048500 0.100000
v 0.013354 0.048785 0.100000
v 0.011898 0.049040 0.100000
v 0.010431 0.049265 0.100000
v 0.008957 0.049460 0.100000
v 0.007475 0.049625 0.100000
v 0.005987 0.049760 0.100000
v 0.004495 0.049865 0.100000
v 0.002998 0.049940 0.100000
v 0.001500 0.049985 0.100000
v -0.000000 0.050000 0.100000
v -0.001500 0.049985 0.100000
v -0.002998 0.049940 0.100000
v -0.004495 0.049865 0.100000
v -0.005987 0.049760 0.100000
v -0.007475 0.049625 0.100000
v -0.008957 0.049460 0.100000
v -0.010431 0.049265 0.100000
v -0.011898 0.049040 0.100000
v -0.013354 0.048785 0.100000
v -0.014800 0.048500 0.100000
v -0.016234 0.048185 0.100000
v -0.017654 0.047840 0.100000
v -0.019061 0.047465 0.100000
v -0.020451 0.047060 0.100000
v -0.021825 0.046625 0.100000
v -0.023181 0.046160 0.100000
v -0.024517 0.045665 0.100000
v -0.025834 0.045140 0.100000
v -0.027128 0.044585 0.100000
v -0.028400 0.044000 0.100000
v -0.029648 0.043385 0.100000
v -0.030870 0.042740 0.100000
v -0.032067 0.042065 0.100000
v -0.033235 0.041360 0.100000
v -0.034375 0.040625 0.100000
v -0.035485 0.039860 0.100000
v -0.036563 0.039065 0.100000
v -0.037610 0.038240 0.100000
v -0.038622 0.037385 0.100000
v -0.039600 0.036500 0.100000
v -0.040542 0.035585 0.100000
v -0.041446 0.034640 0.100000
v -0.042313 0.033665 0.100000
v -0.043139 0.032660 0.100000
v -0.043925 0.031625 0.100000
v -0.044669 0.030560 0.100000
v -0.045369 0.029465 0.100000
v -0.046026 0.028340 0.100000
v -0.046636 0.027185 0.100000
v -0.047200 0.026000 0.100000
v -0.047716 0.024785 0.100000
v -0.048182 0.023540 0.100000
v -0.048599 0.022265 0.100000
v -0.048963 0.020960 0.100000
v -0.049275 0.019625 0.100000
v -0.049533 0.018260 0.100000
v -0.049735 0.016865 0.100000
v -0.049882 0.015440 0.100000
v -0.049970 0.013985 0.100000
v -0.050000 0.012500 0.100000
v 0.050000 0.012500 0.300000
v 0.048515 0.013985 0.300000
v 0.047059 0.015440 0.300000
v 0.045632 0.016865 0.300000
v 0.044234 0.018260 0.300000
v 0.042863 0.019625 0.300000
v 0.041518 0.020960 0.300000
v 0.040201 0.022265 0.300000
v 0.038909 0.023540 0.300000
v 0.037642 0.024785 0.300000
v 0.036400 0.026000 0.300000
v 0.035182 0.027185 0.300000
v 0.033987 0.028340 0.300000
v 0.032815 0.029465 0.300000
v 0.031666 0.030560 0.300000
v 0.030537 0.031625 0.300000
v 0.029430 0.032660 0.300000
v 0.028344 0.033665 0.300000
v 0.027277 0.034640 0.300000
v 0.026229 0.035585 0.300000
v 0.025200 0.036500 0.300000
v 0.024189 0.037385 0.300000
v 0.023195 0.038240 0.300000
v 0.022218 0.039065 0.300000
v 0.021258 0.039860 0.300000
v 0.020312 0.040625 0.300000
v 0.019382 0.041360 0.300000
v 0.018467 0.042065 0.300000
v 0.017565 0.042740 0.300000
v 0.016676 0.043385 0.300000
v 0.015800 0.044000 0.300000
v 0.014936 0.044585 0.300000
v 0.014083 0.045140 0.300000
v 0.013241 0.045665 0.300000
v 0.012410 0.046160 0.300000
v 0.011587 0.046625 0.300000
v 0.010774 0.047060 0.300000
v 0.009970 0.047465 0.300000
v 0.009173 0.047840 0.300000
v 0.008383 0.048185 0.300000
v 0.007600 0.048500 0.300000
v 0.006823 0.048785 0.300000
v 0.006051 0.049040 0.300000
v 0.005284 0.049265 0.300000
v 0.004522 0.049460 0.300000
v 0.003762 0.049625 0.300000
v 0.003006 0.049760 0.300000
v 0.002253 0.049865 0.300000
v 0.001501 0.049940 0.300000
v 0.000750 0.049985 0.300000
v 0.000000 0.050000 0.300000
v -0.000750 0.049985 0.300000
v -0.001501 0.049940 0.300000
v -0.002253 0.049865 0.300000
v -0.003006 0.049760 0.300000
v -0.003762 0.049625 0.300000
v -0.004522 0.049460 0.300000
v -0.005284 0.049265 0.300000
v -0.006051 0.049040 0.300000
v -0.006823 0.048785 0.300000
v -0.007600 0.048500 0.300000
v -0.008383 0.048185 0.300000
v -0.009173 0.047840 0.300000
v -0.009970 0.047465 0.300000
v -0.010774 0.047060 0.300000
v -0.011587 0.046625 0.300000
v -0.012410 0.046160 0.300000
v -0.013241 0.045665 0.300000
v -0.014083 0.045140 0.300000
v -0.014936 0.044585 0.300000
v -0.015800 0.044000 0.300000
v -0.016676 0.043385 0.300000
v -0.017565 0.042740 0.300000
v -0.018467 0.042065 0.300000
v -0.019382 0.041360 0.300000
v -0.020312 0.040625 0.300000
v -0.021258 0.039860 0.300000
v -0.022218 0.039065 0.300000
v -0.023195 0.038240 0.300000
v -0.024189 0.037385 0.300000
v -0.025200 0.036500 0.300000
v -0.026229 0.035585 0.300000
v -0.027277 0.034640 0.300000
v -0.028344 0.033665 0.300000
v -0.029430 0.032660 0.300000
v -0.030537 0.031625 0.300000
v -0.031666 0.030560 0.300000
v -0.032815 0.029465 0.300000
v -0.033987 0.028340 0.300000
v -0.035182 0.027185 0.300000
v -0.036400 0.026000 0.300000
v -0.037642 0.024785 0.300000
v -0.038909 0.023540 0.300000
v -0.040201 0.022265 0.300000
v -0.041518 0.020960 0.300000
v -0.042863 0.019625 0.300000
v -0.044234 0.018260 0.300000
v -0.045632 0.016865 0.300000
v -0.047059 0.015440 0.300000
v -0.048515 0.013985 0.300000
v -0.050000 0.012500 0.300000
v 0.050000 -0.050000 0.300000
v -0.050000 -0.050000 0.300000
v -0.050000 -0.050000 0.100000
v 0.050000 -0.050000 0.100000
vn 0.0000 0.0000 -1.0000
vn 0.0000 0.0000 1.0000
vn 1.0000 0.0000 0.0000
vn -1.0000 0.0000 0.0000
vn 0.0000 -1.0000 0.0000
vn 0.7071 0.7071 0.0051
vn 0.7069 0.7072 0.0100
vn 0.9895 0.1437 0.0143
vn 0.9824 0.1855 0.0205
vn 0.9735 0.2274 0.0261
vn 0.9627 0.2689 0.0312
vn 0.9500 0.3101 0.0357
vn 0.9357 0.3507 0.0396
vn 0.9196 0.3904 0.0429
vn 0.9021 0.4292 0.0457
vn 0.8830 0.4668 0.0480
vn 0.8627 0.5032 0.0497
vn 0.8413 0.5382 0.0509
vn 0.8187 0.5718 0.0517
vn 0.7954 0.6039 0.0520
vn 0.7713 0.6344 0.0519
vn 0.7466 0.6633 0.0514
vn 0.7215 0.6906 0.0506
vn 0.6960 0.7164 0.0495
vn 0.6703 0.7406 0.0482
vn 0.6444 0.7632 0.0466
vn 0.6186 0.7844 0.0449
vn 0.5928 0.8042 0.0429
vn 0.5671 0.8227 0.0409
vn 0.5415 0.8398 0.0387
vn 0.5162 0.8557 0.0365
vn 0.4912 0.8704 0.0342
vn 0.4664 0.8840 0.0319
vn 0.4419 0.8966 0.0296
vn 0.4177 0.9082 0.0273
vn 0.3939 0.9188 0.0250
vn 0.3704 0.9286 0.0228
vn 0.3472 0.9376 0.0206
vn 0.3244 0.9458 0.0185
vn 0.3018 0.9532 0.0164
vn 0.2796 0.9600 0.0145
vn 0.2577 0.9662 0.0126
vn 0.2360 0.9717 0.0109
vn 0.2146 0.9767 0.0093
vn 0.1934 0.9811 0.0078
vn 0.1724 0.9850 0.0064
vn 0.1517 0.9884 0.0051
vn 0.1311 0.9914 0.0040
vn 0.1107 0.9939 0.0030
vn 0.0904 0.9959 0.0022
vn 0.0702 0.9975 0.0015
vn 0.0501 0.9987 0.0009
vn 0.0300 0.9995 0.0005
vn 0.0598 0.9982 0.0002
vn 0.0200 0.9998 0.0000
vn -0.0200 0.9998 0.0001
vn -0.0598 0.9982 0.0004
vn -0.0993 0.9951 0.0011
vn -0.1380 0.9904 0.0021
vn -0.1758 0.9844 0.0033
vn -0.2124 0.9772 0.0047
vn -0.2477 0.9688 0.0064
vn -0.2815 0.9595 0.0082
vn -0.3137 0.9495 0.0102
vn -0.3443 0.9388 0.0124
vn -0.3731 0.9277 0.0146
vn -0.4003 0.9162 0.0170
vn -0.4257 0.9047 0.0193
vn -0.4495 0.8930 0.0217
vn -0.4716 0.8815 0.0241
vn -0.4922 0.8701 0.0265
vn -0.5112 0.8590 0.0288
vn -0.5289 0.8481 0.0311
vn -0.5452 0.8376 0.0332
vn -0.5603 0.8276 0.0353
vn -0.5741 0.8179 0.0372
vn -0.5869 0.8087 0.0390
vn -0.5987 0.7999 0.0407
vn -0.6095 0.7917 0.0422
vn -0.6194 0.7838 0.0436
vn -0.6285 0.7765 0.0447
vn -0.6369 0.7696 0.0457
vn -0.6445 0.7632 0.0465
vn -0.6515 0.7572 0.0470
vn -0.6579 0.7516 0.0474
vn -0.6637 0.7465 0.0475
vn -0.6690 0.7417 0.0474
vn -0.6739 0.7374 0.0471
vn -0.6782 0.7334 0.0465
vn -0.6822 0.7297 0.0457
vn -0.6858 0.7264 0.0446
vn -0.6890 0.7234 0.0433
vn -0.6919 0.7208 0.0416
vn -0.6945 0.7184 0.0398
vn -0.6968 0.7163 0.0376
vn -0.6988 0.7144 0.0352
vn -0.7006 0.7128 0.0325
vn -0.7021 0.7114 0.0295
vn -0.7034 0.7103 0.0262
vn -0.7045 0.7093 0.0226
vn -0.7054 0.7086 0.0187
vn -0.7061 0.7080 0.0145
vn -0.7066 0.7075 0.0100
vn -0.7069 0.7073 0.0051
vn -0.7071 0.7071 0.0000
vn 0.0004 0.0000 -1.0000
vn 0.0003 0.0000 -1.0000
vn -0.0004 0.0000 -1.0000
vn 1.0000 0.0000 -0.0001
vn -0.0001 0.0000 1.0000
vn -0.0149 0.9999 0.0074
vn 0.0003 0.0000 1.0000
vn 0.0004 0.0000 1.0000
vn -0.0002 0.0000 1.0000
vn 0.0002 0.0000 1.0000
vn -0.0004 0.0000 1.0000
vn -0.0007 0.0000 1.0000
vn 0.0007 0.0000 1.0000
vn 0.0001 0.0000 1.0000
vn 0.9998 0.0201 0.0063
vn 0.9981 0.0608 0.0073
vn 0.9947 0.1020 0.0140
vn 0.7065 0.7075 0.0187
vn 0.7060 0.7079 0.0226
vn 0.7053 0.7084 0.0262
vn 0.7044 0.7092 0.0296
vn 0.7033 0.7101 0.0326
vn 0.7020 0.7113 0.0353
vn 0.7005 0.7127 0.0378
vn 0.6987 0.7143 0.0400
vn 0.6967 0.7161 0.0419
vn 0.6944 0.7183 0.0436
vn 0.6918 0.7207 0.0449
vn 0.6889 0.7234 0.0461
vn 0.6857 0.7263 0.0470
vn 0.6821 0.7297 0.0476
vn 0.6782 0.7333 0.0480
vn 0.6738 0.7373 0.0482
vn 0.6690 0.7417 0.0481
vn 0.6637 0.7465 0.0478
vn 0.6579 0.7516 0.0474
vn 0.6515 0.7572 0.0467
vn 0.6445 0.7632 0.0458
vn 0.6369 0.7696 0.0447
vn 0.6286 0.7765 0.0435
vn 0.6195 0.7839 0.0421
vn 0.6095 0.7917 0.0405
vn 0.5987 0.8000 0.0388
vn 0.5870 0.8088 0.0369
vn 0.5742 0.8180 0.0349
vn 0.5603 0.8276 0.0328
vn 0.5452 0.8377 0.0306
vn 0.5289 0.8482 0.0284
vn 0.5113 0.8590 0.0261
vn 0.4922 0.8702 0.0237
vn 0.4716 0.8815 0.0213
vn 0.4495 0.8931 0.0189
vn 0.4257 0.9047 0.0166
vn 0.4003 0.9163 0.0143
vn 0.3732 0.9277 0.0121
vn 0.3443 0.9388 0.0099
vn 0.3137 0.9495 0.0079
vn 0.2815 0.9595 0.0061
vn 0.2477 0.9688 0.0045
vn 0.2124 0.9772 0.0030
vn 0.1758 0.9844 0.0018
vn 0.1380 0.9904 0.0009
vn 0.0993 0.9951 0.0002
vn 0.0100 0.9999 0.0000
vn -0.0100 0.9999 0.0000
vn -0.0300 0.9995 0.0001
vn -0.0501 0.9987 0.0004
vn -0.0702 0.9975 0.0008
vn -0.0904 0.9959 0.0013
vn -0.1107 0.9939 0.0021
vn -0.1311 0.9914 0.0029
vn -0.1517 0.9884 0.0039
vn -0.1724 0.9850 0.0050
vn -0.1934 0.9811 0.0063
vn -0.2146 0.9767 0.0077
vn -0.2360 0.9717 0.0093
vn -0.2577 0.9662 0.0109
vn -0.2796 0.9600 0.0127
vn -0.3018 0.9532 0.0146
vn -0.3244 0.9458 0.0166
vn -0.3472 0.9376 0.0187
vn -0.3704 0.9286 0.0209
vn -0.3939 0.9189 0.0231
vn -0.4178 0.9082 0.0255
vn -0.4419 0.8966 0.0278
vn -0.4664 0.8841 0.0302
vn -0.4912 0.8704 0.0327
vn -0.5162 0.8557 0.0351
vn -0.5416 0.8398 0.0375
vn -0.5671 0.8227 0.0399
vn -0.5928 0.8043 0.0422
vn -0.6186 0.7845 0.0444
vn -0.6444 0.7632 0.0464
vn -0.6703 0.7405 0.0484
vn -0.6960 0.7163 0.0501
vn -0.7214 0.6906 0.0516
vn -0.7465 0.6632 0.0529
vn -0.7712 0.6343 0.0539
vn -0.7953 0.6038 0.0545
vn -0.8186 0.5717 0.0548
vn -0.8411 0.5381 0.0547
vn -0.8625 0.5031 0.0541
vn -0.8828 0.4667 0.0531
vn -0.9018 0.4291 0.0516
vn -0.9194 0.3903 0.0496
vn -0.9354 0.3506 0.0471
vn -0.9497 0.3100 0.0440
vn -0.9623 0.2689 0.0404
vn -0.9732 0.2273 0.0362
vn -0.9821 0.1855 0.0315
vn -0.9893 0.1437 0.0262
vn -0.9946 0.1020 0.0204
vn -0.9981 0.0608 0.0141
vn -0.9998 0.0201 0.0073
usemtl None
s off
f 6//1 4//1 16//1
f 158//2 162//2 150//2
f 1//3 203//3 206//3
f 205//4 202//4 101//4
f 204//5 206//5 203//5
f 2//6 103//6 102//6
f 3//7 104//7 103//7
f 5//8 104//8 4//8
f 6//9 105//9 5//9
f 7//10 106//10 6//10
f 8//11 107//11 7//11
f 9//12 108//12 8//12
f 10//13 109//13 9//13
f 11//14 110//14 10//14
f 12//15 111//15 11//15
f 13//16 112//16 12//16
f 14//17 113//17 13//17
f 15//18 114//18 14//18
f 16//19 115//19 15//19
f 17//20 116//20 16//20
f 18//21 117//21 17//21
f 19//22 118//22 18//22
f 20//23 119//23 19//23
f 21//24 120//24 20//24
f 22//25 121//25 21//25
f 23//26 122//26 22//26
f 24//27 123//27 23//27
f 25//28 124//28 24//28
f 26//29 125//29 25//29
f 27//30 126//30 26//30
f 28//31 127//31 27//31
f 29//32 128//32 28//32
f 30//33 129//33 29//33
f 31//34 130//34 30//34
f 32//35 131//35 31//35
f 33//36 132//36 32//36
f 34//37 133//37 33//37
f 35//38 134//38 34//38
f 36//39 135//39 35//39
f 37//40 136//40 36//40
f 38//41 137//41 37//41
f 39//42 138//42 38//42
f 40//43 139//43 39//43
f 41//44 140//44 40//44
f 42//45 141//45 41//45
f 43//46 142//46 42//46
f 44//47 143//47 43//47
f 45//48 144//48 44//48
f 46//49 145//49 45//49
f 47//50 146//50 46//50
f 48//51 147//51 47//51
f 49//52 148//52 48//52
f 50//53 149//53 49//53
f 50//54 151//54 150//54
f 51//55 152//55 151//55
f 52//56 153//56 152//56
f 53//57 154//57 153//57
f 54//58 155//58 154//58
f 55//59 156//59 155//59
f 56//60 157//60 156//60
f 57//61 158//61 157//61
f 58//62 159//62 158//62
f 59//63 160//63 159//63
f 60//64 161//64 160//64
f 61//65 162//65 161//65
f 62//66 163//66 162//66
f 63//67 164//67 163//67
f 64//68 165//68 164//68
f 65//69 166//69 165//69
f 66//70 167//70 166//70
f 67//71 168//71 167//71
f 68//72 169//72 168//72
f 69//73 170//73 169//73
f 70//74 171//74 170//74
f 71//75 172//75 171//75
f 72//76 173//76 172//76
f 73//77 174//77 173//77
f 74//78 175//78 174//78
f 75//79 176//79 175//79
f 76//80 177//80 176//80
f 77//81 178//81 177//81
f 78//82 179//82 178//82
f 79//83 180//83 179//83
f 80//84 181//84 180//84
f 81//85 182//85 181//85
f 82//86 183//86 182//86
f 83//87 184//87 183//87
f 84//88 185//88 184//88
f 85//89 186//89 185//89
f 86//90 187//90 186//90
f 87//91 188//91 187//91
f 88//92 189//92 188//92
f 89//93 190//93 189//93
f 90//94 191//94 190//94
f 91//95 192//95 191//95
f 92//96 193//96 192//96
f 93//97 194//97 193//97
f 94//98 195//98 194//98
f 95//99 196//99 195//99
f 96//100 197//100 196//100
f 97//101 198//101 197//101
f 98//102 199//102 198//102
f 99//103 200//103 199//103
f 100//104 201//104 200//104
f 101//105 202//105 201//105
f 205//1 101//1 206//1
f 101//1 100//1 76//1
f 206//1 101//1 1//1
f 100//1 99//1 82//1
f 99//1 98//1 82//1
f 98//106 97//106 96//106
f 96//1 95//1 94//1
f 94//106 93//106 92//106
f 92//1 91//1 90//1
f 90//107 89//107 92//107
f 89//1 88//1 92//1
f 88//1 87//1 86//1
f 86//1 85//1 84//1
f 84//1 83//1 98//1
f 83//1 82//1 98//1
f 82//1 81//1 100//1
f 81//1 80//1 100//1
f 80//1 79//1 100//1
f 79//1 78//1 100//1
f 78//1 77//1 100//1
f 77//1 76//1 100//1
f 76//1 75//1 101//1
f 75//1 74//1 101//1
f 74//1 73//1 101//1
f 73//1 72//1 101//1
f 72//1 71//1 101//1
f 71//1 70//1 101//1
f 70//1 69//1 101//1
f 69//1 68//1 101//1
f 68//1 67//1 101//1
f 67//1 66//1 101//1
f 66//1 65//1 101//1
f 65//1 64//1 101//1
f 64//1 63//1 101//1
f 63//1 62//1 101//1
f 62//1 61//1 101//1
f 61//1 60//1 101//1
f 60//1 59//1 101//1
f 59//1 58//1 101//1
f 58//1 57//1 101//1
f 57//1 56//1 101//1
f 56//1 55//1 101//1
f 55//1 54//1 101//1
f 54//1 53//1 101//1
f 53//1 52//1 101//1
f 52//1 51//1 101//1
f 51//1 50//1 1//1
f 50//1 49//1 1//1
f 49//1 48//1 1//1
f 48//1 47//1 1//1
f 47//1 46//1 1//1
f 46//1 45//1 1//1
f 45//1 44//1 1//1
f 44//1 43//1 1//1
f 43//1 42//1 1//1
f 42//1 41//1 1//1
f 41//1 40//1 1//1
f 40//1 39//1 1//1
f 39//1 38//1 1//1
f 38//1 37//1 1//1
f 37//1 36//1 1//1
f 36//1 35//1 1//1
f 35//1 34//1 1//1
f 34//1 33//1 1//1
f 33//1 32//1 1//1
f 32//1 31//1 1//1
f 31//1 30//1 1//1
f 30//1 29//1 1//1
f 29//1 28//1 1//1
f 28//1 27//1 1//1
f 27//1 26//1 1//1
f 1//1 26//1 2//1
f 26//1 25//1 2//1
f 25//1 24//1 2//1
f 24//1 23//1 2//1
f 23//1 22//1 2//1
f 22//1 21//1 4//1
f 21//1 20//1 4//1
f 20//1 19//1 4//1
f 19//1 18//1 4//1
f 18//1 17//1 16//1
f 16//1 15//1 14//1
f 14//1 13//1 12//1
f 12//1 11//1 10//1
f 10//1 9//1 12//1
f 9//1 8//1 12//1
f 8//1 7//1 6//1
f 6//108 5//108 4//108
f 4//1 3//1 22//1
f 3//1 2//1 22//1
f 1//1 101//1 51//1
f 98//1 96//1 84//1
f 96//1 94//1 88//1
f 94//1 92//1 88//1
f 88//1 86//1 96//1
f 86//1 84//1 96//1
f 18//1 16//1 4//1
f 16//1 14//1 8//1
f 14//1 12//1 8//1
f 8//1 6//1 16//1
f 203//109 2//109 102//109
f 2//110 3//110 9//110
f 102//111 2//111 101//111
f 3//112 4//112 5//112
f 5//2 6//2 3//2
f 6//2 7//2 3//2
f 7//113 8//113 9//113
f 9//114 10//114 11//114
f 11//2 12//2 2//2
f 12//2 13//2 2//2
f 13//2 14//2 2//2
f 14//2 15//2 2//2
f 15//2 16//2 2//2
f 16//2 17//2 2//2
f 17//2 18//2 2//2
f 18//2 19//2 2//2
f 19//2 20//2 2//2
f 20//2 21//2 2//2
f 21//2 22//2 2//2
f 22//2 23//2 2//2
f 23//2 24//2 2//2
f 24//2 25//2 2//2
f 25//2 26//2 2//2
f 26//2 27//2 2//2
f 27//2 28//2 2//2
f 28//2 29//2 2//2
f 29//2 30//2 2//2
f 30//2 31//2 2//2
f 31//2 32//2 2//2
f 32//2 33//2 2//2
f 33//2 34//2 2//2
f 34//2 35//2 101//2
f 2//2 34//2 101//2
f 35//2 36//2 101//2
f 36//2 37//2 101//2
f 37//2 38//2 101//2
f 38//2 39//2 101//2
f 39//2 40//2 101//2
f 40//2 41//2 101//2
f 41//2 42//2 101//2
f 42//2 43//2 101//2
f 43//2 44//2 101//2
f 44//2 45//2 101//2
f 45//2 46//2 101//2
f 46//2 47//2 101//2
f 47//2 48//2 101//2
f 48//2 49//2 101//2
f 49//2 50//2 101//2
f 50//2 51//2 101//2
f 51//2 52//2 101//2
f 52//2 53//2 101//2
f 53//2 54//2 101//2
f 54//2 55//2 101//2
f 55//2 56//2 101//2
f 56//2 57//2 101//2
f 57//2 58//2 101//2
f 58//2 59//2 101//2
f 59//2 60//2 101//2
f 60//2 61//2 101//2
f 61//2 62//2 101//2
f 62//2 63//2 101//2
f 63//2 64//2 101//2
f 64//2 65//2 101//2
f 65//2 66//2 101//2
f 66//2 67//2 101//2
f 67//2 68//2 101//2
f 68//2 69//2 101//2
f 69//2 70//2 101//2
f 70//2 71//2 101//2
f 71//2 72//2 101//2
f 72//2 73//2 101//2
f 73//2 74//2 101//2
f 74//2 75//2 101//2
f 75//2 76//2 100//2
f 76//2 77//2 99//2
f 77//2 78//2 99//2
f 78//2 79//2 99//2
f 79//2 80//2 97//2
f 80//2 81//2 97//2
f 81//2 82//2 95//2
f 82//2 83//2 95//2
f 83//115 84//115 85//115
f 85//2 86//2 87//2
f 87//2 88//2 91//2
f 88//2 89//2 91//2
f 89//114 90//114 91//114
f 91//113 92//113 93//113
f 93//116 94//116 95//116
f 95//2 96//2 81//2
f 96//2 97//2 81//2
f 97//2 98//2 79//2
f 98//2 99//2 79//2
f 99//2 100//2 76//2
f 100//2 101//2 75//2
f 102//2 103//2 203//2
f 103//2 104//2 203//2
f 91//2 93//2 87//2
f 93//2 95//2 87//2
f 83//2 85//2 95//2
f 85//2 87//2 95//2
f 11//2 2//2 9//2
f 7//110 9//110 3//110
f 202//2 204//2 201//2
f 204//2 203//2 105//2
f 198//2 204//2 197//2
f 200//2 201//2 204//2
f 198//2 199//2 204//2
f 199//2 200//2 204//2
f 196//2 197//2 204//2
f 194//2 195//2 204//2
f 195//2 196//2 204//2
f 192//2 193//2 204//2
f 193//2 194//2 204//2
f 190//2 191//2 204//2
f 191//2 192//2 204//2
f 188//2 189//2 129//2
f 189//2 190//2 128//2
f 188//2 129//2 130//2
f 186//2 187//2 130//2
f 187//2 188//2 130//2
f 184//2 185//2 133//2
f 185//2 186//2 132//2
f 184//2 133//2 134//2
f 182//2 183//2 134//2
f 183//2 184//2 134//2
f 180//2 181//2 134//2
f 181//2 182//2 134//2
f 178//2 179//2 134//2
f 179//2 180//2 134//2
f 176//2 177//2 134//2
f 177//2 178//2 134//2
f 174//2 175//2 135//2
f 175//2 176//2 134//2
f 172//2 173//2 142//2
f 173//2 174//2 142//2
f 170//2 171//2 142//2
f 171//2 172//2 142//2
f 168//2 169//2 142//2
f 169//2 170//2 142//2
f 166//2 167//2 144//2
f 167//2 168//2 144//2
f 164//117 165//117 166//117
f 162//118 163//118 164//118
f 160//2 161//2 158//2
f 161//2 162//2 158//2
f 158//117 159//117 160//117
f 156//2 157//2 158//2
f 154//110 155//110 158//110
f 155//2 156//2 158//2
f 152//119 153//119 154//119
f 150//110 151//110 152//110
f 148//114 149//114 150//114
f 146//2 147//2 166//2
f 147//2 148//2 166//2
f 144//2 145//2 166//2
f 145//2 146//2 166//2
f 142//2 143//2 168//2
f 143//2 144//2 168//2
f 140//2 141//2 174//2
f 141//2 142//2 174//2
f 138//2 139//2 174//2
f 139//2 140//2 174//2
f 136//2 137//2 174//2
f 137//2 138//2 174//2
f 134//2 135//2 175//2
f 135//2 136//2 174//2
f 132//2 133//2 185//2
f 130//2 131//2 186//2
f 131//2 132//2 186//2
f 128//2 129//2 189//2
f 126//2 127//2 190//2
f 127//2 128//2 190//2
f 124//2 125//2 204//2
f 125//2 126//2 190//2
f 204//2 125//2 190//2
f 122//2 123//2 204//2
f 123//2 124//2 204//2
f 120//2 121//2 204//2
f 121//2 122//2 204//2
f 118//2 119//2 204//2
f 119//2 120//2 204//2
f 116//2 117//2 204//2
f 117//2 118//2 204//2
f 114//2 115//2 204//2
f 115//2 116//2 204//2
f 112//2 113//2 204//2
f 113//2 114//2 204//2
f 110//2 111//2 204//2
f 111//2 112//2 204//2
f 108//2 109//2 204//2
f 109//2 110//2 204//2
f 106//2 107//2 204//2
f 107//2 108//2 204//2
f 104//2 105//2 203//2
f 105//2 106//2 204//2
f 148//2 150//2 166//2
f 150//2 152//2 158//2
f 152//119 154//119 158//119
f 162//2 164//2 150//2
f 164//2 166//2 150//2
f 1//120 2//120 203//120
f 205//4 204//4 202//4
f 204//5 205//5 206//5
f 2//121 3//121 103//121
f 3//122 4//122 104//122
f 5//123 105//123 104//123
f 6//124 106//124 105//124
f 7//125 107//125 106//125
f 8//126 108//126 107//126
f 9//127 109//127 108//127
f 10//128 110//128 109//128
f 11//129 111//129 110//129
f 12//130 112//130 111//130
f 13//131 113//131 112//131
f 14//132 114//132 113//132
f 15//133 115//133 114//133
f 16//134 116//134 115//134
f 17//135 117//135 116//135
f 18//136 118//136 117//136
f 19//137 119//137 118//137
f 20//138 120//138 119//138
f 21//139 121//139 120//139
f 22//140 122//140 121//140
f 23//141 123//141 122//141
f 24//142 124//142 123//142
f 25//143 125//143 124//143
f 26//144 126//144 125//144
f 27//145 127//145 126//145
f 28//146 128//146 127//146
f 29//147 129//147 128//147
f 30//148 130//148 129//148
f 31//149 131//149 130//149
f 32//150 132//150 131//150
f 33//151 133//151 132//151
f 34//152 134//152 133//152
f 35//153 135//153 134//153
f 36//154 136//154 135//154
f 37//155 137//155 136//155
f 38//156 138//156 137//156
f 39//157 139//157 138//157
f 40//158 140//158 139//158
f 41//159 141//159 140//159
f 42//160 142//160 141//160
f 43//161 143//161 142//161
f 44//162 144//162 143//162
f 45//163 145//163 144//163
f 46//164 146//164 145//164
f 47//165 147//165 146//165
f 48//166 148//166 147//166
f 49//167 149//167 148//167
f 50//168 150//168 149//168
f 50//169 51//169 151//169
f 51//170 52//170 152//170
f 52//171 53//171 153//171
f 53//172 54//172 154//172
f 54//173 55//173 155//173
f 55//174 56//174 156//174
f 56//175 57//175 157//175
f 57//176 58//176 158//176
f 58//177 59//177 159//177
f 59//178 60//178 160//178
f 60//179 61//179 161//179
f 61//180 62//180 162//180
f 62//181 63//181 163//181
f 63//182 64//182 164//182
f 64//183 65//183 165//183
f 65//184 66//184 166//184
f 66//185 67//185 167//185
f 67//186 68//186 168//186
f 68//187 69//187 169//187
f 69//188 70//188 170//188
f 70//189 71//189 171//189
f 71//190 72//190 172//190
f 72//191 73//191 173//191
f 73//192 74//192 174//192
f 74//193 75//193 175//193
f 75//194 76//194 176//194
f 76//195 77//195 177//195
f 77//196 78//196 178//196
f 78//197 79//197 179//197
f 79//198 80//198 180//198
f 80//199 81//199 181//199
f 81//200 82//200 182//200
f 82//201 83//201 183//201
f 83//202 84//202 184//202
f 84//203 85//203 185//203
f 85//204 86//204 186//204
f 86//205 87//205 187//205
f 87//206 88//206 188//206
f 88//207 89//207 189//207
f 89//208 90//208 190//208
f 90//209 91//209 191//209
f 91//210 92//210 192//210
f 92//211 93//211 193//211
f 93//212 94//212 194//212
f 94//213 95//213 195//213
f 95//214 96//214 196//214
f 96//215 97//215 197//215
f 97//216 98//216 198//216
f 98//217 99//217 199//217
f 99//218 100//218 200//218
f 100//219 101//219 201//219
f 101//5 102//5 202//5
