# Blender v2.93.7 OBJ File: ''
# www.blender.org
mtllib finger0_segment0_collision.mtl
o finger0_segment0
v 0.050000 0.012500 0.100000
v 0.049970 0.013985 0.100000
v 0.049882 0.015440 0.100000
v 0.049735 0.016865 0.100000
v 0.049533 0.018260 0.100000
v 0.049275 0.019625 0.100000
v 0.048963 0.020960 0.100000
v 0.048599 0.022265 0.100000
v 0.048182 0.023540 0.100000
v 0.047716 0.024785 0.100000
v 0.047200 0.026000 0.100000
v 0.046636 0.027185 0.100000
v 0.046026 0.028340 0.100000
v 0.045369 0.029465 0.100000
v 0.044669 0.030560 0.100000
v 0.043925 0.031625 0.100000
v 0.043139 0.032660 0.100000
v 0.042313 0.033665 0.100000
v 0.041446 0.034640 0.100000
v 0.040542 0.035585 0.100000
v 0.039600 0.036500 0.100000
v 0.038622 0.037385 0.100000
v 0.037610 0.038240 0.100000
v 0.036563 0.039065 0.100000
v 0.035485 0.039860 0.100000
v 0.034375 0.040625 0.100000
v 0.033235 0.041360 0.100000
v 0.032067 0.042065 0.100000
v 0.030870 0.042740 0.100000
v 0.029648 0.043385 0.100000
v 0.028400 0.044000 0.100000
v 0.027128 0.044585 0.100000
v 0.025834 0.045140 0.100000
v 0.024517 0.045665 0.100000
v 0.023181 0.046160 0.100000
v 0.021825 0.046625 0.100000
v 0.020451 0.047060 0.100000
v 0.019061 0.047465 0.100000
v 0.017654 0.047840 0.100000
v 0.016234 0.048185 0.100000
v 0.014800 0.048500 0.100000
v 0.013354 0.048785 0.100000
v 0.011898 0.049040 0.100000
v 0.010431 0.049265 0.100000
v 0.008957 0.049460 0.100000
v 0.007475 0.049625 0.100000
v 0.005987 0.049760 0.100000
v 0.004495 0.049865 0.100000
v 0.002998 0.049940 0.100000
v 0.001500 0.049985 0.100000
v -0.000000 0.050000 0.100000
v -0.001500 0.049985 0.100000
v -0.002998 0.049940 0.100000
v -0.004495 0.049865 0.100000
v -0.005987 0.049760 0.100000
v -0.007475 0.049625 0.100000
v -0.008957 0.049460 0.100000
v -0.010431 0.049265 0.100000
v -0.011898 0.049040 0.100000
v -0.013354 0.048785 0.100000
v -0.014800 0.048500 0.100000
v -0.016234 0.048185 0.100000
v -0.017654 0.047840 0.100000
v -0.019061 0.047465 0.100000
v -0.020451 0.047060 0.100000
v -0.021825 0.046625 0.100000
v -0.023181 0.046160 0.100000
v -0.024517 0.045665 0.100000
v -0.025834 0.045140 0.100000
v -0.027128 0.044585 0.100000
v -0.028400 0.044000 0.100000
v -0.029648 0.043385 0.100000
v -0.030870 0.042740 0.100000
v -0.032067 0.042065 0.100000
v -0.033235 0.041360 0.100000
v -0.034375 0.040625 0.100000
v -0.035485 0.039860 0.100000
v -0.036563 0.039065 0.100000
v -0.037610 0.038240 0.100000
v -0.038622 0.037385 0.100000
v -0.039600 0.036500 0.100000
v -0.040542 0.035585 0.100000
v -0.041446 0.034640 0.100000
v -0.042313 0.033665 0.100000
v -0.043139 0.032660 0.100000
v -0.043925 0.031625 0.100000
v -0.044669 0.030560 0.100000
v -0.045369 0.029465 0.100000
v -0.046026 0.028340 0.100000
v -0.046636 0.027185 0.100000
v -0.047200 0.026000 0.100000
v -0.047716 0.024785 0.100000
v -0.048182 0.023540 0.100000
v -0.048599 0.022265 0.100000
v -0.048963 0.020960 0.100000
v -0.049275 0.019625 0.100000
v -0.049533 0.018260 0.100000
v -0.049735 0.016865 0.100000
v -0.049882 0.015440 0.100000
v -0.049970 0.013985 0.100000
v -0.050000 0.012500 0.100000
v 0.050000 0.012500 0.500000
v 0.048515 0.013985 0.500000
v 0.047059 0.015440 0.500000
v 0.045632 0.016865 0.500000
v 0.044234 0.018260 0.500000
v 0.042863 0.019625 0.500000
v 0.041518 0.020960 0.500000
v 0.040201 0.022265 0.500000
v 0.038909 0.023540 0.500000
v 0.037642 0.024785 0.500000
v 0.036400 0.026000 0.500000
v 0.035182 0.027185 0.500000
v 0.033987 0.028340 0.500000
v 0.032815 0.029465 0.500000
v 0.031666 0.030560 0.500000
v 0.030537 0.031625 0.500000
v 0.029430 0.032660 0.500000
v 0.028344 0.033665 0.500000
v 0.027277 0.034640 0.500000
v 0.026229 0.035585 0.500000
v 0.025200 0.036500 0.500000
v 0.024189 0.037385 0.500000
v 0.023195 0.038240 0.500000
v 0.022218 0.039065 0.500000
v 0.021258 0.039860 0.500000
v 0.020312 0.040625 0.500000
v 0.019382 0.041360 0.500000
v 0.018467 0.042065 0.500000
v 0.017565 0.042740 0.500000
v 0.016676 0.043385 0.500000
v 0.015800 0.044000 0.500000
v 0.014936 0.044585 0.500000
v 0.014083 0.045140 0.500000
v 0.013241 0.045665 0.500000
v 0.012410 0.046160 0.500000
v 0.011587 0.046625 0.500000
v 0.010774 0.047060 0.500000
v 0.009970 0.047465 0.500000
v 0.009173 0.047840 0.500000
v 0.008383 0.048185 0.500000
v 0.007600 0.048500 0.500000
v 0.006823 0.048785 0.500000
v 0.006051 0.049040 0.500000
v 0.005284 0.049265 0.500000
v 0.004522 0.049460 0.500000
v 0.003762 0.049625 0.500000
v 0.003006 0.049760 0.500000
v 0.002253 0.049865 0.500000
v 0.001501 0.049940 0.500000
v 0.000750 0.049985 0.500000
v 0.000000 0.050000 0.500000
v -0.000750 0.049985 0.500000
v -0.001501 0.049940 0.500000
v -0.002253 0.049865 0.500000
v -0.003006 0.049760 0.500000
v -0.003762 0.049625 0.500000
v -0.004522 0.049460 0.500000
v -0.005284 0.049265 0.500000
v -0.006051 0.049040 0.500000
v -0.006823 0.048785 0.500000
v -0.007600 0.048500 0.500000
v -0.008383 0.048185 0.500000
v -0.009173 0.047840 0.500000
v -0.009970 0.047465 0.500000
v -0.010774 0.047060 0.500000
v -0.011587 0.046625 0.500000
v -0.012410 0.046160 0.500000
v -0.013241 0.045665 0.500000
v -0.014083 0.045140 0.500000
v -0.014936 0.044585 0.500000
v -0.015800 0.044000 0.500000
v -0.016676 0.043385 0.500000
v -0.017565 0.042740 0.500000
v -0.018467 0.042065 0.500000
v -0.019382 0.041360 0.500000
v -0.020312 0.040625 0.500000
v -0.021258 0.039860 0.500000
v -0.022218 0.039065 0.500000
v -0.023195 0.038240 0.500000
v -0.024189 0.037385 0.500000
v -0.025200 0.036500 0.500000
v -0.026229 0.035585 0.500000
v -0.027277 0.034640 0.500000
v -0.028344 0.033665 0.500000
v -0.029430 0.032660 0.500000
v -0.030537 0.031625 0.500000
v -0.031666 0.030560 0.500000
v -0.032815 0.029465 0.500000
v -0.033987 0.028340 0.500000
v -0.035182 0.027185 0.500000
v -0.036400 0.026000 0.500000
v -0.037642 0.024785 0.500000
v -0.038909 0.023540 0.500000
v -0.040201 0.022265 0.500000
v -0.041518 0.020960 0.500000
v -0.042863 0.019625 0.500000
v -0.044234 0.018260 0.500000
v -0.045632 0.016865 0.500000
v -0.047059 0.015440 0.500000
v -0.048515 0.013985 0.500000
v -0.050000 0.012500 0.500000
v 0.050000 -0.050000 0.500000
v -0.050000 -0.050000 0.500000
v -0.050000 -0.050000 0.100000
v 0.050000 -0.050000 0.100000
vn 0.0000 0.0000 -1.0000
vn -0.0000 0.0000 1.0000
vn 1.0000 0.0000 0.0000
vn -1.0000 0.0000 0.0000
vn 0.0000 -1.0000 0.0000
vn 0.7071 0.7071 0.0026
vn 0.7069 0.7073 0.0050
vn 0.9896 0.1437 0.0071
vn 0.9826 0.1856 0.0102
vn 0.9737 0.2274 0.0130
vn 0.9630 0.2691 0.0156
vn 0.9505 0.3103 0.0178
vn 0.9362 0.3509 0.0198
vn 0.9203 0.3907 0.0215
vn 0.9028 0.4295 0.0229
vn 0.8838 0.4672 0.0240
vn 0.8635 0.5037 0.0249
vn 0.8421 0.5388 0.0255
vn 0.8196 0.5724 0.0259
vn 0.7962 0.6045 0.0260
vn 0.7721 0.6350 0.0260
vn 0.7473 0.6639 0.0257
vn 0.7222 0.6913 0.0253
vn 0.6966 0.7170 0.0248
vn 0.6709 0.7412 0.0241
vn 0.6450 0.7639 0.0233
vn 0.6191 0.7850 0.0224
vn 0.5932 0.8048 0.0215
vn 0.5674 0.8232 0.0205
vn 0.5418 0.8403 0.0194
vn 0.5165 0.8561 0.0183
vn 0.4914 0.8708 0.0171
vn 0.4666 0.8843 0.0160
vn 0.4420 0.8969 0.0148
vn 0.4179 0.9084 0.0136
vn 0.3940 0.9190 0.0125
vn 0.3705 0.9288 0.0114
vn 0.3473 0.9377 0.0103
vn 0.3244 0.9459 0.0092
vn 0.3019 0.9533 0.0082
vn 0.2796 0.9601 0.0072
vn 0.2577 0.9662 0.0063
vn 0.2360 0.9717 0.0054
vn 0.2146 0.9767 0.0046
vn 0.1934 0.9811 0.0039
vn 0.1724 0.9850 0.0032
vn 0.1517 0.9884 0.0026
vn 0.1311 0.9914 0.0020
vn 0.1107 0.9939 0.0015
vn 0.0904 0.9959 0.0011
vn 0.0702 0.9975 0.0007
vn 0.0501 0.9987 0.0004
vn 0.0300 0.9995 0.0002
vn 0.0598 0.9982 0.0001
vn 0.0200 0.9998 0.0000
vn -0.0200 0.9998 0.0000
vn -0.0598 0.9982 0.0002
vn -0.0993 0.9951 0.0006
vn -0.1380 0.9904 0.0010
vn -0.1758 0.9844 0.0016
vn -0.2124 0.9772 0.0024
vn -0.2477 0.9688 0.0032
vn -0.2815 0.9595 0.0041
vn -0.3137 0.9495 0.0051
vn -0.3443 0.9388 0.0062
vn -0.3732 0.9277 0.0073
vn -0.4003 0.9163 0.0085
vn -0.4258 0.9048 0.0097
vn -0.4495 0.8932 0.0109
vn -0.4717 0.8817 0.0121
vn -0.4923 0.8703 0.0133
vn -0.5114 0.8592 0.0144
vn -0.5291 0.8484 0.0155
vn -0.5454 0.8380 0.0166
vn -0.5605 0.8279 0.0177
vn -0.5744 0.8183 0.0186
vn -0.5873 0.8092 0.0195
vn -0.5991 0.8004 0.0204
vn -0.6099 0.7922 0.0211
vn -0.6199 0.7844 0.0218
vn -0.6290 0.7771 0.0224
vn -0.6374 0.7702 0.0229
vn -0.6450 0.7638 0.0232
vn -0.6520 0.7578 0.0235
vn -0.6584 0.7523 0.0237
vn -0.6643 0.7471 0.0238
vn -0.6696 0.7424 0.0237
vn -0.6744 0.7380 0.0236
vn -0.6788 0.7340 0.0233
vn -0.6827 0.7303 0.0229
vn -0.6863 0.7270 0.0223
vn -0.6895 0.7240 0.0216
vn -0.6924 0.7212 0.0208
vn -0.6949 0.7188 0.0199
vn -0.6972 0.7167 0.0188
vn -0.6992 0.7147 0.0176
vn -0.7009 0.7131 0.0162
vn -0.7024 0.7117 0.0147
vn -0.7036 0.7105 0.0131
vn -0.7047 0.7095 0.0113
vn -0.7055 0.7086 0.0093
vn -0.7062 0.7080 0.0072
vn -0.7066 0.7076 0.0050
vn -0.7069 0.7073 0.0026
vn -0.7071 0.7071 0.0000
vn 0.0004 0.0000 -1.0000
vn 0.0003 0.0000 -1.0000
vn -0.0004 0.0000 -1.0000
vn 1.0000 0.0000 -0.0001
vn -0.0149 0.9999 0.0037
vn 0.0003 0.0000 1.0000
vn 0.0001 0.0000 1.0000
vn 0.0002 0.0000 1.0000
vn -0.0002 0.0000 1.0000
vn 0.0004 0.0000 1.0000
vn -0.0001 0.0000 1.0000
vn 0.9998 0.0201 0.0031
vn 0.9981 0.0608 0.0036
vn 0.9948 0.1021 0.0070
vn 0.7066 0.7075 0.0094
vn 0.7061 0.7080 0.0113
vn 0.7055 0.7086 0.0131
vn 0.7046 0.7094 0.0148
vn 0.7036 0.7104 0.0163
vn 0.7023 0.7116 0.0177
vn 0.7008 0.7131 0.0189
vn 0.6991 0.7147 0.0200
vn 0.6971 0.7166 0.0210
vn 0.6949 0.7188 0.0218
vn 0.6923 0.7212 0.0225
vn 0.6895 0.7239 0.0231
vn 0.6863 0.7269 0.0235
vn 0.6827 0.7303 0.0238
vn 0.6788 0.7340 0.0240
vn 0.6744 0.7380 0.0241
vn 0.6696 0.7423 0.0241
vn 0.6643 0.7471 0.0239
vn 0.6584 0.7523 0.0237
vn 0.6520 0.7578 0.0234
vn 0.6450 0.7638 0.0229
vn 0.6374 0.7702 0.0224
vn 0.6290 0.7771 0.0217
vn 0.6199 0.7844 0.0210
vn 0.6099 0.7922 0.0203
vn 0.5991 0.8005 0.0194
vn 0.5873 0.8092 0.0185
vn 0.5745 0.8183 0.0175
vn 0.5605 0.8280 0.0164
vn 0.5454 0.8380 0.0153
vn 0.5291 0.8485 0.0142
vn 0.5114 0.8592 0.0130
vn 0.4923 0.8703 0.0119
vn 0.4717 0.8817 0.0107
vn 0.4495 0.8932 0.0095
vn 0.4258 0.9048 0.0083
vn 0.4003 0.9163 0.0071
vn 0.3732 0.9277 0.0060
vn 0.3443 0.9388 0.0050
vn 0.3138 0.9495 0.0040
vn 0.2815 0.9596 0.0031
vn 0.2477 0.9688 0.0022
vn 0.2124 0.9772 0.0015
vn 0.1758 0.9844 0.0009
vn 0.1380 0.9904 0.0004
vn 0.0993 0.9951 0.0001
vn 0.0100 0.9999 0.0000
vn -0.0100 0.9999 0.0000
vn -0.0300 0.9995 0.0001
vn -0.0501 0.9987 0.0002
vn -0.0702 0.9975 0.0004
vn -0.0904 0.9959 0.0007
vn -0.1107 0.9939 0.0010
vn -0.1311 0.9914 0.0015
vn -0.1517 0.9884 0.0020
vn -0.1724 0.9850 0.0025
vn -0.1934 0.9811 0.0032
vn -0.2146 0.9767 0.0039
vn -0.2360 0.9717 0.0046
vn -0.2577 0.9662 0.0055
vn -0.2796 0.9601 0.0064
vn -0.3019 0.9533 0.0073
vn -0.3244 0.9459 0.0083
vn -0.3473 0.9377 0.0094
vn -0.3705 0.9288 0.0104
vn -0.3940 0.9190 0.0116
vn -0.4179 0.9084 0.0127
vn -0.4420 0.8969 0.0139
vn -0.4666 0.8844 0.0151
vn -0.4914 0.8708 0.0163
vn -0.5165 0.8561 0.0176
vn -0.5418 0.8403 0.0188
vn -0.5674 0.8232 0.0199
vn -0.5932 0.8048 0.0211
vn -0.6191 0.7850 0.0222
vn -0.6450 0.7639 0.0232
vn -0.6709 0.7412 0.0242
vn -0.6966 0.7170 0.0251
vn -0.7221 0.6913 0.0258
vn -0.7473 0.6639 0.0265
vn -0.7720 0.6350 0.0270
vn -0.7962 0.6045 0.0273
vn -0.8195 0.5724 0.0274
vn -0.8420 0.5387 0.0274
vn -0.8635 0.5037 0.0271
vn -0.8837 0.4672 0.0266
vn -0.9027 0.4295 0.0258
vn -0.9202 0.3907 0.0248
vn -0.9361 0.3508 0.0236
vn -0.9504 0.3102 0.0220
vn -0.9629 0.2690 0.0202
vn -0.9736 0.2274 0.0181
vn -0.9825 0.1856 0.0158
vn -0.9895 0.1437 0.0131
vn -0.9947 0.1021 0.0102
vn -0.9981 0.0608 0.0070
vn -0.9998 0.0201 0.0036
usemtl None
s off
f 6//1 4//1 16//1
f 101//2 2//2 27//2
f 1//3 203//3 206//3
f 205//4 202//4 101//4
f 204//5 206//5 203//5
f 2//6 103//6 102//6
f 3//7 104//7 103//7
f 5//8 104//8 4//8
f 6//9 105//9 5//9
f 7//10 106//10 6//10
f 8//11 107//11 7//11
f 9//12 108//12 8//12
f 10//13 109//13 9//13
f 11//14 110//14 10//14
f 12//15 111//15 11//15
f 13//16 112//16 12//16
f 14//17 113//17 13//17
f 15//18 114//18 14//18
f 16//19 115//19 15//19
f 17//20 116//20 16//20
f 18//21 117//21 17//21
f 19//22 118//22 18//22
f 20//23 119//23 19//23
f 21//24 120//24 20//24
f 22//25 121//25 21//25
f 23//26 122//26 22//26
f 24//27 123//27 23//27
f 25//28 124//28 24//28
f 26//29 125//29 25//29
f 27//30 126//30 26//30
f 28//31 127//31 27//31
f 29//32 128//32 28//32
f 30//33 129//33 29//33
f 31//34 130//34 30//34
f 32//35 131//35 31//35
f 33//36 132//36 32//36
f 34//37 133//37 33//37
f 35//38 134//38 34//38
f 36//39 135//39 35//39
f 37//40 136//40 36//40
f 38//41 137//41 37//41
f 39//42 138//42 38//42
f 40//43 139//43 39//43
f 41//44 140//44 40//44
f 42//45 141//45 41//45
f 43//46 142//46 42//46
f 44//47 143//47 43//47
f 45//48 144//48 44//48
f 46//49 145//49 45//49
f 47//50 146//50 46//50
f 48//51 147//51 47//51
f 49//52 148//52 48//52
f 50//53 149//53 49//53
f 50//54 151//54 150//54
f 51//55 152//55 151//55
f 52//56 153//56 152//56
f 53//57 154//57 153//57
f 54//58 155//58 154//58
f 55//59 156//59 155//59
f 56//60 157//60 156//60
f 57//61 158//61 157//61
f 58//62 159//62 158//62
f 59//63 160//63 159//63
f 60//64 161//64 160//64
f 61//65 162//65 161//65
f 62//66 163//66 162//66
f 63//67 164//67 163//67
f 64//68 165//68 164//68
f 65//69 166//69 165//69
f 66//70 167//70 166//70
f 67//71 168//71 167//71
f 68//72 169//72 168//72
f 69//73 170//73 169//73
f 70//74 171//74 170//74
f 71//75 172//75 171//75
f 72//76 173//76 172//76
f 73//77 174//77 173//77
f 74//78 175//78 174//78
f 75//79 176//79 175//79
f 76//80 177//80 176//80
f 77//81 178//81 177//81
f 78//82 179//82 178//82
f 79//83 180//83 179//83
f 80//84 181//84 180//84
f 81//85 182//85 181//85
f 82//86 183//86 182//86
f 83//87 184//87 183//87
f 84//88 185//88 184//88
f 85//89 186//89 185//89
f 86//90 187//90 186//90
f 87//91 188//91 187//91
f 88//92 189//92 188//92
f 89//93 190//93 189//93
f 90//94 191//94 190//94
f 91//95 192//95 191//95
f 92//96 193//96 192//96
f 93//97 194//97 193//97
f 94//98 195//98 194//98
f 95//99 196//99 195//99
f 96//100 197//100 196//100
f 97//101 198//101 197//101
f 98//102 199//102 198//102
f 99//103 200//103 199//103
f 100//104 201//104 200//104
f 101//105 202//105 201//105
f 205//1 101//1 206//1
f 101//1 100//1 76//1
f 206//1 101//1 1//1
f 100//1 99//1 82//1
f 99//1 98//1 82//1
f 98//106 97//106 96//106
f 96//1 95//1 94//1
f 94//106 93//106 92//106
f 92//1 91//1 90//1
f 90//107 89//107 92//107
f 89//1 88//1 92//1
f 88//1 87//1 86//1
f 86//1 85//1 84//1
f 84//1 83//1 98//1
f 83//1 82//1 98//1
f 82//1 81//1 100//1
f 81//1 80//1 100//1
f 80//1 79//1 100//1
f 79//1 78//1 100//1
f 78//1 77//1 100//1
f 77//1 76//1 100//1
f 76//1 75//1 101//1
f 75//1 74//1 101//1
f 74//1 73//1 101//1
f 73//1 72//1 101//1
f 72//1 71//1 101//1
f 71//1 70//1 101//1
f 70//1 69//1 101//1
f 69//1 68//1 101//1
f 68//1 67//1 101//1
f 67//1 66//1 101//1
f 66//1 65//1 101//1
f 65//1 64//1 101//1
f 64//1 63//1 101//1
f 63//1 62//1 101//1
f 62//1 61//1 101//1
f 61//1 60//1 101//1
f 60//1 59//1 101//1
f 59//1 58//1 101//1
f 58//1 57//1 101//1
f 57//1 56//1 101//1
f 56//1 55//1 101//1
f 55//1 54//1 101//1
f 54//1 53//1 101//1
f 53//1 52//1 101//1
f 52//1 51//1 101//1
f 51//1 50//1 1//1
f 50//1 49//1 1//1
f 49//1 48//1 1//1
f 48//1 47//1 1//1
f 47//1 46//1 1//1
f 46//1 45//1 1//1
f 45//1 44//1 1//1
f 44//1 43//1 1//1
f 43//1 42//1 1//1
f 42//1 41//1 1//1
f 41//1 40//1 1//1
f 40//1 39//1 1//1
f 39//1 38//1 1//1
f 38//1 37//1 1//1
f 37//1 36//1 1//1
f 36//1 35//1 1//1
f 35//1 34//1 1//1
f 34//1 33//1 1//1
f 33//1 32//1 1//1
f 32//1 31//1 1//1
f 31//1 30//1 1//1
f 30//1 29//1 1//1
f 29//1 28//1 1//1
f 28//1 27//1 1//1
f 27//1 26//1 1//1
f 1//1 26//1 2//1
f 26//1 25//1 2//1
f 25//1 24//1 2//1
f 24//1 23//1 2//1
f 23//1 22//1 2//1
f 22//1 21//1 4//1
f 21//1 20//1 4//1
f 20//1 19//1 4//1
f 19//1 18//1 4//1
f 18//1 17//1 16//1
f 16//1 15//1 14//1
f 14//1 13//1 12//1
f 12//1 11//1 10//1
f 10//1 9//1 12//1
f 9//1 8//1 12//1
f 8//1 7//1 6//1
f 6//108 5//108 4//108
f 4//1 3//1 22//1
f 3//1 2//1 22//1
f 1//1 101//1 51//1
f 98//1 96//1 84//1
f 96//1 94//1 88//1
f 94//1 92//1 88//1
f 88//1 86//1 96//1
f 86//1 84//1 96//1
f 18//1 16//1 4//1
f 16//1 14//1 8//1
f 14//1 12//1 8//1
f 8//1 6//1 16//1
f 203//109 2//109 102//109
f 2//2 3//2 7//2
f 102//110 2//110 101//110
f 3//111 4//111 5//111
f 5//2 6//2 3//2
f 6//2 7//2 3//2
f 7//2 8//2 2//2
f 8//2 9//2 2//2
f 9//2 10//2 2//2
f 10//112 11//112 2//112
f 11//2 12//2 2//2
f 12//2 13//2 2//2
f 13//2 14//2 2//2
f 14//2 15//2 2//2
f 15//2 16//2 2//2
f 16//2 17//2 2//2
f 17//2 18//2 2//2
f 18//2 19//2 2//2
f 19//2 20//2 2//2
f 20//2 21//2 2//2
f 21//2 22//2 2//2
f 22//2 23//2 2//2
f 23//2 24//2 2//2
f 24//2 25//2 2//2
f 25//2 26//2 2//2
f 26//2 27//2 2//2
f 27//2 28//2 101//2
f 28//2 29//2 101//2
f 29//2 30//2 101//2
f 30//2 31//2 101//2
f 31//2 32//2 101//2
f 32//2 33//2 101//2
f 33//2 34//2 101//2
f 34//2 35//2 101//2
f 35//2 36//2 101//2
f 36//2 37//2 101//2
f 37//2 38//2 101//2
f 38//2 39//2 101//2
f 39//2 40//2 101//2
f 40//2 41//2 101//2
f 41//2 42//2 101//2
f 42//2 43//2 101//2
f 43//2 44//2 101//2
f 44//2 45//2 101//2
f 45//2 46//2 101//2
f 46//2 47//2 101//2
f 47//2 48//2 101//2
f 48//2 49//2 101//2
f 49//2 50//2 101//2
f 50//2 51//2 101//2
f 51//2 52//2 101//2
f 52//2 53//2 101//2
f 53//2 54//2 101//2
f 54//2 55//2 101//2
f 55//2 56//2 101//2
f 56//2 57//2 101//2
f 57//2 58//2 101//2
f 58//2 59//2 101//2
f 59//2 60//2 101//2
f 60//2 61//2 101//2
f 61//2 62//2 101//2
f 62//2 63//2 101//2
f 63//2 64//2 101//2
f 64//2 65//2 101//2
f 65//2 66//2 101//2
f 66//2 67//2 101//2
f 67//2 68//2 101//2
f 68//2 69//2 101//2
f 69//2 70//2 101//2
f 70//2 71//2 101//2
f 71//2 72//2 101//2
f 72//2 73//2 101//2
f 73//2 74//2 101//2
f 74//2 75//2 101//2
f 75//2 76//2 101//2
f 76//2 77//2 100//2
f 101//2 76//2 100//2
f 77//2 78//2 100//2
f 78//2 79//2 99//2
f 79//2 80//2 98//2
f 80//2 81//2 97//2
f 79//2 98//2 99//2
f 81//2 82//2 97//2
f 82//2 83//2 96//2
f 97//2 82//2 96//2
f 83//2 84//2 95//2
f 84//2 85//2 94//2
f 95//2 84//2 94//2
f 85//2 86//2 87//2
f 87//113 88//113 89//113
f 89//114 90//114 91//114
f 91//115 92//115 93//115
f 93//116 94//116 85//116
f 95//2 96//2 83//2
f 97//2 98//2 80//2
f 99//2 100//2 78//2
f 102//2 103//2 203//2
f 103//2 104//2 204//2
f 203//2 103//2 204//2
f 104//2 105//2 204//2
f 105//2 106//2 204//2
f 93//2 85//2 87//2
f 106//2 107//2 204//2
f 91//2 93//2 87//2
f 91//116 87//116 89//116
f 107//2 108//2 204//2
f 108//2 109//2 204//2
f 109//2 110//2 204//2
f 110//2 111//2 204//2
f 111//2 112//2 204//2
f 112//2 113//2 204//2
f 113//2 114//2 204//2
f 202//2 204//2 201//2
f 200//2 204//2 199//2
f 200//2 201//2 204//2
f 198//2 199//2 204//2
f 196//2 197//2 204//2
f 197//2 198//2 204//2
f 194//2 195//2 204//2
f 195//2 196//2 204//2
f 192//2 193//2 204//2
f 193//112 194//112 204//112
f 190//2 191//2 204//2
f 191//2 192//2 204//2
f 188//2 189//2 204//2
f 189//116 190//116 204//116
f 186//2 187//2 204//2
f 187//2 188//2 204//2
f 184//2 185//2 204//2
f 185//2 186//2 204//2
f 182//2 183//2 204//2
f 183//2 184//2 204//2
f 180//2 181//2 204//2
f 181//2 182//2 204//2
f 178//2 179//2 204//2
f 179//2 180//2 204//2
f 176//2 177//2 204//2
f 177//116 178//116 204//116
f 174//2 175//2 176//2
f 172//2 173//2 174//2
f 170//2 171//2 172//2
f 168//2 169//2 170//2
f 166//2 167//2 168//2
f 164//2 165//2 166//2
f 162//2 163//2 164//2
f 160//2 161//2 164//2
f 161//2 162//2 164//2
f 158//2 159//2 160//2
f 156//2 157//2 160//2
f 157//2 158//2 160//2
f 154//2 155//2 156//2
f 152//2 153//2 154//2
f 150//2 151//2 176//2
f 151//2 152//2 176//2
f 148//112 149//112 204//112
f 149//2 150//2 176//2
f 146//2 147//2 204//2
f 147//2 148//2 204//2
f 144//2 145//2 204//2
f 145//2 146//2 204//2
f 142//2 143//2 204//2
f 143//2 144//2 204//2
f 140//112 141//112 204//112
f 141//2 142//2 204//2
f 138//112 139//112 204//112
f 139//2 140//2 204//2
f 136//2 137//2 204//2
f 137//2 138//2 204//2
f 134//112 135//112 204//112
f 135//2 136//2 204//2
f 132//2 133//2 204//2
f 133//2 134//2 204//2
f 130//2 131//2 204//2
f 131//2 132//2 204//2
f 128//116 129//116 204//116
f 129//2 130//2 204//2
f 126//2 127//2 204//2
f 127//2 128//2 204//2
f 124//2 125//2 204//2
f 125//2 126//2 204//2
f 122//2 123//2 204//2
f 123//2 124//2 204//2
f 120//2 121//2 204//2
f 121//2 122//2 204//2
f 118//2 119//2 204//2
f 119//2 120//2 204//2
f 116//2 117//2 204//2
f 117//2 118//2 204//2
f 114//2 115//2 204//2
f 115//2 116//2 204//2
f 149//2 176//2 204//2
f 152//2 154//2 172//2
f 154//2 156//2 172//2
f 164//2 166//2 160//2
f 166//2 168//2 160//2
f 168//2 170//2 160//2
f 170//2 172//2 160//2
f 172//2 174//2 152//2
f 174//2 176//2 152//2
f 156//2 160//2 172//2
f 1//117 2//117 203//117
f 205//4 204//4 202//4
f 204//5 205//5 206//5
f 2//118 3//118 103//118
f 3//119 4//119 104//119
f 5//120 105//120 104//120
f 6//121 106//121 105//121
f 7//122 107//122 106//122
f 8//123 108//123 107//123
f 9//124 109//124 108//124
f 10//125 110//125 109//125
f 11//126 111//126 110//126
f 12//127 112//127 111//127
f 13//128 113//128 112//128
f 14//129 114//129 113//129
f 15//130 115//130 114//130
f 16//131 116//131 115//131
f 17//132 117//132 116//132
f 18//133 118//133 117//133
f 19//134 119//134 118//134
f 20//135 120//135 119//135
f 21//136 121//136 120//136
f 22//137 122//137 121//137
f 23//138 123//138 122//138
f 24//139 124//139 123//139
f 25//140 125//140 124//140
f 26//141 126//141 125//141
f 27//142 127//142 126//142
f 28//143 128//143 127//143
f 29//144 129//144 128//144
f 30//145 130//145 129//145
f 31//146 131//146 130//146
f 32//147 132//147 131//147
f 33//148 133//148 132//148
f 34//149 134//149 133//149
f 35//150 135//150 134//150
f 36//151 136//151 135//151
f 37//152 137//152 136//152
f 38//153 138//153 137//153
f 39//154 139//154 138//154
f 40//155 140//155 139//155
f 41//156 141//156 140//156
f 42//157 142//157 141//157
f 43//158 143//158 142//158
f 44//159 144//159 143//159
f 45//160 145//160 144//160
f 46//161 146//161 145//161
f 47//162 147//162 146//162
f 48//163 148//163 147//163
f 49//164 149//164 148//164
f 50//165 150//165 149//165
f 50//166 51//166 151//166
f 51//167 52//167 152//167
f 52//168 53//168 153//168
f 53//169 54//169 154//169
f 54//170 55//170 155//170
f 55//171 56//171 156//171
f 56//172 57//172 157//172
f 57//173 58//173 158//173
f 58//174 59//174 159//174
f 59//175 60//175 160//175
f 60//176 61//176 161//176
f 61//177 62//177 162//177
f 62//178 63//178 163//178
f 63//179 64//179 164//179
f 64//180 65//180 165//180
f 65//181 66//181 166//181
f 66//182 67//182 167//182
f 67//183 68//183 168//183
f 68//184 69//184 169//184
f 69//185 70//185 170//185
f 70//186 71//186 171//186
f 71//187 72//187 172//187
f 72//188 73//188 173//188
f 73//189 74//189 174//189
f 74//190 75//190 175//190
f 75//191 76//191 176//191
f 76//192 77//192 177//192
f 77//193 78//193 178//193
f 78//194 79//194 179//194
f 79//195 80//195 180//195
f 80//196 81//196 181//196
f 81//197 82//197 182//197
f 82//198 83//198 183//198
f 83//199 84//199 184//199
f 84//200 85//200 185//200
f 85//201 86//201 186//201
f 86//202 87//202 187//202
f 87//203 88//203 188//203
f 88//204 89//204 189//204
f 89//205 90//205 190//205
f 90//206 91//206 191//206
f 91//207 92//207 192//207
f 92//208 93//208 193//208
f 93//209 94//209 194//209
f 94//210 95//210 195//210
f 95//211 96//211 196//211
f 96//212 97//212 197//212
f 97//213 98//213 198//213
f 98//214 99//214 199//214
f 99//215 100//215 200//215
f 100//216 101//216 201//216
f 101//5 102//5 202//5
