# Blender v2.93.7 OBJ File: ''
# www.blender.org
mtllib palm_collision.mtl
o palm_base
v -0.250000 1.000000 0.000000
v -0.250000 -1.000000 0.000000
v 0.250000 -1.000000 0.000000
v 0.250000 1.000000 0.000000
v -0.250000 1.000000 -0.500000
v -0.250000 -1.000000 -0.500000
v 0.250000 -1.000000 -0.500000
v 0.250000 1.000000 -0.500000
vn 0.0000 0.0000 1.0000
vn 0.0000 0.0000 -1.0000
vn 0.0000 1.0000 0.0000
vn -1.0000 0.0000 0.0000
vn 0.0000 -1.0000 0.0000
vn 1.0000 0.0000 0.0000
usemtl None
s off
f 2//1 4//1 1//1
f 7//2 5//2 8//2
f 8//3 1//3 4//3
f 5//4 2//4 1//4
f 6//5 3//5 2//5
f 7//6 4//6 3//6
f 2//1 3//1 4//1
f 7//2 6//2 5//2
f 8//3 5//3 1//3
f 5//4 6//4 2//4
f 6//5 7//5 3//5
f 7//6 8//6 4//6
