# Blender v2.93.7 OBJ File: 'test_env.blend'
# www.blender.org
mtllib test_env.mtl
o Cube.011
v -1.000000 0.000000 0.000000
v -0.999404 0.000000 -0.029700
v -0.997632 0.000000 -0.058800
v -0.994708 0.000000 -0.087300
v -0.990656 0.000000 -0.115200
v -0.985500 0.000000 -0.142500
v -0.979264 0.000000 -0.169200
v -0.971972 0.000000 -0.195300
v -0.963648 0.000000 -0.220800
v -0.954316 0.000000 -0.245700
v -0.944000 0.000000 -0.270000
v -0.932724 0.000000 -0.293700
v -0.920512 0.000000 -0.316800
v -0.907388 0.000000 -0.339300
v -0.893376 0.000000 -0.361200
v -0.878500 0.000000 -0.382500
v -0.862784 0.000000 -0.403200
v -0.846252 0.000000 -0.423300
v -0.828928 0.000000 -0.442800
v -0.810836 0.000000 -0.461700
v -0.792000 0.000000 -0.480000
v -0.772444 0.000000 -0.497700
v -0.752192 0.000000 -0.514800
v -0.731268 0.000000 -0.531300
v -0.709696 0.000000 -0.547200
v -0.687500 0.000000 -0.562500
v -0.664704 0.000000 -0.577200
v -0.641332 0.000000 -0.591300
v -0.617408 0.000000 -0.604800
v -0.592956 0.000000 -0.617700
v -0.568000 0.000000 -0.630000
v -0.542564 0.000000 -0.641700
v -0.516672 0.000000 -0.652800
v -0.490348 0.000000 -0.663300
v -0.463616 0.000000 -0.673200
v -0.436500 0.000000 -0.682500
v -0.409024 0.000000 -0.691200
v -0.381212 0.000000 -0.699300
v -0.353088 0.000000 -0.706800
v -0.324676 0.000000 -0.713700
v -0.296000 0.000000 -0.720000
v -0.267084 0.000000 -0.725700
v -0.237952 0.000000 -0.730800
v -0.208628 0.000000 -0.735300
v -0.179136 0.000000 -0.739200
v -0.149500 0.000000 -0.742500
v -0.119744 0.000000 -0.745200
v -0.089892 0.000000 -0.747300
v -0.059968 0.000000 -0.748800
v -0.029996 0.000000 -0.749700
v 0.000000 0.000000 -0.750000
v 0.029996 0.000000 -0.749700
v 0.059968 0.000000 -0.748800
v 0.089892 0.000000 -0.747300
v 0.119744 0.000000 -0.745200
v 0.149500 0.000000 -0.742500
v 0.179136 0.000000 -0.739200
v 0.208628 0.000000 -0.735300
v 0.237952 0.000000 -0.730800
v 0.267084 0.000000 -0.725700
v 0.296000 0.000000 -0.720000
v 0.324676 0.000000 -0.713700
v 0.353088 0.000000 -0.706800
v 0.381212 0.000000 -0.699300
v 0.409024 0.000000 -0.691200
v 0.436500 0.000000 -0.682500
v 0.463616 0.000000 -0.673200
v 0.490348 0.000000 -0.663300
v 0.516672 0.000000 -0.652800
v 0.542564 0.000000 -0.641700
v 0.568000 0.000000 -0.630000
v 0.592956 0.000000 -0.617700
v 0.617408 0.000000 -0.604800
v 0.641332 0.000000 -0.591300
v 0.664704 0.000000 -0.577200
v 0.687500 0.000000 -0.562500
v 0.709696 0.000000 -0.547200
v 0.731268 0.000000 -0.531300
v 0.752192 0.000000 -0.514800
v 0.772444 0.000000 -0.497700
v 0.792000 0.000000 -0.480000
v 0.810836 0.000000 -0.461700
v 0.828928 0.000000 -0.442800
v 0.846252 0.000000 -0.423300
v 0.862784 0.000000 -0.403200
v 0.878500 0.000000 -0.382500
v 0.893376 0.000000 -0.361200
v 0.907388 0.000000 -0.339300
v 0.920512 0.000000 -0.316800
v 0.932724 0.000000 -0.293700
v 0.944000 0.000000 -0.270000
v 0.954316 0.000000 -0.245700
v 0.963648 0.000000 -0.220800
v 0.971972 0.000000 -0.195300
v 0.979264 0.000000 -0.169200
v 0.985500 0.000000 -0.142500
v 0.990656 0.000000 -0.115200
v 0.994708 0.000000 -0.087300
v 0.997632 0.000000 -0.058800
v 0.999404 0.000000 -0.029700
v 1.000000 0.000000 0.000000
v -1.000000 1.000000 0.000000
v -0.999404 1.000000 -0.029700
v -0.997632 1.000000 -0.058800
v -0.994708 1.000000 -0.087300
v -0.990656 1.000000 -0.115200
v -0.985500 1.000000 -0.142500
v -0.979264 1.000000 -0.169200
v -0.971972 1.000000 -0.195300
v -0.963648 1.000000 -0.220800
v -0.954316 1.000000 -0.245700
v -0.944000 1.000000 -0.270000
v -0.932724 1.000000 -0.293700
v -0.920512 1.000000 -0.316800
v -0.907388 1.000000 -0.339300
v -0.893376 1.000000 -0.361200
v -0.878500 1.000000 -0.382500
v -0.862784 1.000000 -0.403200
v -0.846252 1.000000 -0.423300
v -0.828928 1.000000 -0.442800
v -0.810836 1.000000 -0.461700
v -0.792000 1.000000 -0.480000
v -0.772444 1.000000 -0.497700
v -0.752192 1.000000 -0.514800
v -0.731268 1.000000 -0.531300
v -0.709696 1.000000 -0.547200
v -0.687500 1.000000 -0.562500
v -0.664704 1.000000 -0.577200
v -0.641332 1.000000 -0.591300
v -0.617408 1.000000 -0.604800
v -0.592956 1.000000 -0.617700
v -0.568000 1.000000 -0.630000
v -0.542564 1.000000 -0.641700
v -0.516672 1.000000 -0.652800
v -0.490348 1.000000 -0.663300
v -0.463616 1.000000 -0.673200
v -0.436500 1.000000 -0.682500
v -0.409024 1.000000 -0.691200
v -0.381212 1.000000 -0.699300
v -0.353088 1.000000 -0.706800
v -0.324676 1.000000 -0.713700
v -0.296000 1.000000 -0.720000
v -0.267084 1.000000 -0.725700
v -0.237952 1.000000 -0.730800
v -0.208628 1.000000 -0.735300
v -0.179136 1.000000 -0.739200
v -0.149500 1.000000 -0.742500
v -0.119744 1.000000 -0.745200
v -0.089892 1.000000 -0.747300
v -0.059968 1.000000 -0.748800
v -0.029996 1.000000 -0.749700
v 0.000000 1.000000 -0.750000
v 0.029996 1.000000 -0.749700
v 0.059968 1.000000 -0.748800
v 0.089892 1.000000 -0.747300
v 0.119744 1.000000 -0.745200
v 0.149500 1.000000 -0.742500
v 0.179136 1.000000 -0.739200
v 0.208628 1.000000 -0.735300
v 0.237952 1.000000 -0.730800
v 0.267084 1.000000 -0.725700
v 0.296000 1.000000 -0.720000
v 0.324676 1.000000 -0.713700
v 0.353088 1.000000 -0.706800
v 0.381212 1.000000 -0.699300
v 0.409024 1.000000 -0.691200
v 0.436500 1.000000 -0.682500
v 0.463616 1.000000 -0.673200
v 0.490348 1.000000 -0.663300
v 0.516672 1.000000 -0.652800
v 0.542564 1.000000 -0.641700
v 0.568000 1.000000 -0.630000
v 0.592956 1.000000 -0.617700
v 0.617408 1.000000 -0.604800
v 0.641332 1.000000 -0.591300
v 0.664704 1.000000 -0.577200
v 0.687500 1.000000 -0.562500
v 0.709696 1.000000 -0.547200
v 0.731268 1.000000 -0.531300
v 0.752192 1.000000 -0.514800
v 0.772444 1.000000 -0.497700
v 0.792000 1.000000 -0.480000
v 0.810836 1.000000 -0.461700
v 0.828928 1.000000 -0.442800
v 0.846252 1.000000 -0.423300
v 0.862784 1.000000 -0.403200
v 0.878500 1.000000 -0.382500
v 0.893376 1.000000 -0.361200
v 0.907388 1.000000 -0.339300
v 0.920512 1.000000 -0.316800
v 0.932724 1.000000 -0.293700
v 0.944000 1.000000 -0.270000
v 0.954316 1.000000 -0.245700
v 0.963648 1.000000 -0.220800
v 0.971972 1.000000 -0.195300
v 0.979264 1.000000 -0.169200
v 0.985500 1.000000 -0.142500
v 0.990656 1.000000 -0.115200
v 0.994708 1.000000 -0.087300
v 0.997632 1.000000 -0.058800
v 0.999404 1.000000 -0.029700
v 1.000000 1.000000 0.000000
vn 0.0000 -1.0000 0.0000
vn 0.0000 0.0000 1.0000
vn -0.9998 0.0000 -0.0201
vn -0.9982 0.0000 -0.0608
vn -0.9948 0.0000 -0.1021
vn -0.9896 0.0000 -0.1437
vn -0.9826 0.0000 -0.1856
vn -0.9738 0.0000 -0.2274
vn -0.9631 0.0000 -0.2691
vn -0.9506 0.0000 -0.3103
vn -0.9364 0.0000 -0.3509
vn -0.9205 0.0000 -0.3908
vn -0.9030 0.0000 -0.4296
vn -0.8841 0.0000 -0.4674
vn -0.8638 0.0000 -0.5038
vn -0.8423 0.0000 -0.5389
vn -0.8198 0.0000 -0.5726
vn -0.7965 0.0000 -0.6047
vn -0.7723 0.0000 -0.6352
vn -0.7476 0.0000 -0.6642
vn -0.7224 0.0000 -0.6915
vn -0.6968 0.0000 -0.7172
vn -0.6710 0.0000 -0.7414
vn -0.6451 0.0000 -0.7641
vn -0.6192 0.0000 -0.7852
vn -0.5933 0.0000 -0.8050
vn -0.5675 0.0000 -0.8233
vn -0.5419 0.0000 -0.8404
vn -0.5166 0.0000 -0.8562
vn -0.4914 0.0000 -0.8709
vn -0.4666 0.0000 -0.8845
vn -0.4421 0.0000 -0.8970
vn -0.4179 0.0000 -0.9085
vn -0.3940 0.0000 -0.9191
vn -0.3705 0.0000 -0.9288
vn -0.3473 0.0000 -0.9378
vn -0.3244 0.0000 -0.9459
vn -0.3019 0.0000 -0.9533
vn -0.2796 0.0000 -0.9601
vn -0.2577 0.0000 -0.9662
vn -0.2360 0.0000 -0.9718
vn -0.2146 0.0000 -0.9767
vn -0.1934 0.0000 -0.9811
vn -0.1724 0.0000 -0.9850
vn -0.1517 0.0000 -0.9884
vn -0.1311 0.0000 -0.9914
vn -0.1107 0.0000 -0.9939
vn -0.0904 0.0000 -0.9959
vn -0.0702 0.0000 -0.9975
vn -0.0501 0.0000 -0.9987
vn -0.0300 0.0000 -0.9995
vn -0.0100 0.0000 -1.0000
vn 0.0100 0.0000 -1.0000
vn 0.0300 0.0000 -0.9995
vn 0.0501 0.0000 -0.9987
vn 0.0702 0.0000 -0.9975
vn 0.0904 0.0000 -0.9959
vn 0.1107 0.0000 -0.9939
vn 0.1311 0.0000 -0.9914
vn 0.1517 0.0000 -0.9884
vn 0.1724 0.0000 -0.9850
vn 0.1934 0.0000 -0.9811
vn 0.2146 0.0000 -0.9767
vn 0.2360 0.0000 -0.9718
vn 0.2577 0.0000 -0.9662
vn 0.2796 0.0000 -0.9601
vn 0.3019 0.0000 -0.9533
vn 0.3244 0.0000 -0.9459
vn 0.3473 0.0000 -0.9378
vn 0.3705 0.0000 -0.9288
vn 0.3940 0.0000 -0.9191
vn 0.4179 0.0000 -0.9085
vn 0.4421 0.0000 -0.8970
vn 0.4666 0.0000 -0.8845
vn 0.4914 0.0000 -0.8709
vn 0.5166 0.0000 -0.8562
vn 0.5419 0.0000 -0.8404
vn 0.5675 0.0000 -0.8233
vn 0.5933 0.0000 -0.8050
vn 0.6192 0.0000 -0.7852
vn 0.6451 0.0000 -0.7641
vn 0.6710 0.0000 -0.7414
vn 0.6968 0.0000 -0.7172
vn 0.7224 0.0000 -0.6915
vn 0.7476 0.0000 -0.6642
vn 0.7723 0.0000 -0.6352
vn 0.7965 0.0000 -0.6047
vn 0.8198 0.0000 -0.5726
vn 0.8423 0.0000 -0.5389
vn 0.8638 0.0000 -0.5038
vn 0.8841 0.0000 -0.4674
vn 0.9030 0.0000 -0.4296
vn 0.9205 0.0000 -0.3908
vn 0.9364 0.0000 -0.3509
vn 0.9506 0.0000 -0.3103
vn 0.9631 0.0000 -0.2691
vn 0.9738 0.0000 -0.2274
vn 0.9826 0.0000 -0.1856
vn 0.9896 0.0000 -0.1437
vn 0.9948 0.0000 -0.1021
vn 0.9982 0.0000 -0.0608
vn 0.9998 0.0000 -0.0201
usemtl None
s off
f 1//1 2//1 3//1 4//1 5//1 6//1 7//1 8//1 9//1 10//1 11//1 12//1 13//1 14//1 15//1 16//1 17//1 18//1 19//1 20//1 21//1 22//1 23//1 24//1 25//1 26//1 27//1 28//1 29//1 30//1 31//1 32//1 33//1 34//1 35//1 36//1 37//1 38//1 39//1 40//1 41//1 42//1 43//1 44//1 45//1 46//1 47//1 48//1 49//1 50//1 51//1 52//1 53//1 54//1 55//1 56//1 57//1 58//1 59//1 60//1 61//1 62//1 63//1 64//1 65//1 66//1 67//1 68//1 69//1 70//1 71//1 72//1 73//1 74//1 75//1 76//1 77//1 78//1 79//1 80//1 81//1 82//1 83//1 84//1 85//1 86//1 87//1 88//1 89//1 90//1 91//1 92//1 93//1 94//1 95//1 96//1 97//1 98//1 99//1 100//1 101//1
f 102//1 103//1 104//1 105//1 106//1 107//1 108//1 109//1 110//1 111//1 112//1 113//1 114//1 115//1 116//1 117//1 118//1 119//1 120//1 121//1 122//1 123//1 124//1 125//1 126//1 127//1 128//1 129//1 130//1 131//1 132//1 133//1 134//1 135//1 136//1 137//1 138//1 139//1 140//1 141//1 142//1 143//1 144//1 145//1 146//1 147//1 148//1 149//1 150//1 151//1 152//1 153//1 154//1 155//1 156//1 157//1 158//1 159//1 160//1 161//1 162//1 163//1 164//1 165//1 166//1 167//1 168//1 169//1 170//1 171//1 172//1 173//1 174//1 175//1 176//1 177//1 178//1 179//1 180//1 181//1 182//1 183//1 184//1 185//1 186//1 187//1 188//1 189//1 190//1 191//1 192//1 193//1 194//1 195//1 196//1 197//1 198//1 199//1 200//1 201//1 202//1
f 1//2 101//2 202//2 102//2
f 2//3 1//3 102//3 103//3
f 3//4 2//4 103//4 104//4
f 4//5 3//5 104//5 105//5
f 5//6 4//6 105//6 106//6
f 6//7 5//7 106//7 107//7
f 7//8 6//8 107//8 108//8
f 8//9 7//9 108//9 109//9
f 9//10 8//10 109//10 110//10
f 10//11 9//11 110//11 111//11
f 11//12 10//12 111//12 112//12
f 12//13 11//13 112//13 113//13
f 13//14 12//14 113//14 114//14
f 14//15 13//15 114//15 115//15
f 15//16 14//16 115//16 116//16
f 16//17 15//17 116//17 117//17
f 17//18 16//18 117//18 118//18
f 18//19 17//19 118//19 119//19
f 19//20 18//20 119//20 120//20
f 20//21 19//21 120//21 121//21
f 21//22 20//22 121//22 122//22
f 22//23 21//23 122//23 123//23
f 23//24 22//24 123//24 124//24
f 24//25 23//25 124//25 125//25
f 25//26 24//26 125//26 126//26
f 26//27 25//27 126//27 127//27
f 27//28 26//28 127//28 128//28
f 28//29 27//29 128//29 129//29
f 29//30 28//30 129//30 130//30
f 30//31 29//31 130//31 131//31
f 31//32 30//32 131//32 132//32
f 32//33 31//33 132//33 133//33
f 33//34 32//34 133//34 134//34
f 34//35 33//35 134//35 135//35
f 35//36 34//36 135//36 136//36
f 36//37 35//37 136//37 137//37
f 37//38 36//38 137//38 138//38
f 38//39 37//39 138//39 139//39
f 39//40 38//40 139//40 140//40
f 40//41 39//41 140//41 141//41
f 41//42 40//42 141//42 142//42
f 42//43 41//43 142//43 143//43
f 43//44 42//44 143//44 144//44
f 44//45 43//45 144//45 145//45
f 45//46 44//46 145//46 146//46
f 46//47 45//47 146//47 147//47
f 47//48 46//48 147//48 148//48
f 48//49 47//49 148//49 149//49
f 49//50 48//50 149//50 150//50
f 50//51 49//51 150//51 151//51
f 51//52 50//52 151//52 152//52
f 52//53 51//53 152//53 153//53
f 53//54 52//54 153//54 154//54
f 54//55 53//55 154//55 155//55
f 55//56 54//56 155//56 156//56
f 56//57 55//57 156//57 157//57
f 57//58 56//58 157//58 158//58
f 58//59 57//59 158//59 159//59
f 59//60 58//60 159//60 160//60
f 60//61 59//61 160//61 161//61
f 61//62 60//62 161//62 162//62
f 62//63 61//63 162//63 163//63
f 63//64 62//64 163//64 164//64
f 64//65 63//65 164//65 165//65
f 65//66 64//66 165//66 166//66
f 66//67 65//67 166//67 167//67
f 67//68 66//68 167//68 168//68
f 68//69 67//69 168//69 169//69
f 69//70 68//70 169//70 170//70
f 70//71 69//71 170//71 171//71
f 71//72 70//72 171//72 172//72
f 72//73 71//73 172//73 173//73
f 73//74 72//74 173//74 174//74
f 74//75 73//75 174//75 175//75
f 75//76 74//76 175//76 176//76
f 76//77 75//77 176//77 177//77
f 77//78 76//78 177//78 178//78
f 78//79 77//79 178//79 179//79
f 79//80 78//80 179//80 180//80
f 80//81 79//81 180//81 181//81
f 81//82 80//82 181//82 182//82
f 82//83 81//83 182//83 183//83
f 83//84 82//84 183//84 184//84
f 84//85 83//85 184//85 185//85
f 85//86 84//86 185//86 186//86
f 86//87 85//87 186//87 187//87
f 87//88 86//88 187//88 188//88
f 88//89 87//89 188//89 189//89
f 89//90 88//90 189//90 190//90
f 90//91 89//91 190//91 191//91
f 91//92 90//92 191//92 192//92
f 92//93 91//93 192//93 193//93
f 93//94 92//94 193//94 194//94
f 94//95 93//95 194//95 195//95
f 95//96 94//96 195//96 196//96
f 96//97 95//97 196//97 197//97
f 97//98 96//98 197//98 198//98
f 98//99 97//99 198//99 199//99
f 99//100 98//100 199//100 200//100
f 100//101 99//101 200//101 201//101
f 101//102 100//102 201//102 202//102
